<svg xmlns="http://www.w3.org/2000/svg" viewBox="0 0 627.5 1269.02"><defs><style>.cls-1,.cls-31,.cls-37,.cls-55{fill:#fff;}.cls-2,.cls-8{fill:#f3f3f3;}.cls-2,.cls-6,.cls-7{stroke:#f3f3f3;}.cls-10,.cls-11,.cls-12,.cls-13,.cls-14,.cls-15,.cls-16,.cls-17,.cls-18,.cls-2,.cls-3,.cls-30,.cls-55,.cls-6,.cls-7,.cls-9{stroke-miterlimit:10;}.cls-11,.cls-12,.cls-13,.cls-14,.cls-15,.cls-16,.cls-17,.cls-18,.cls-2,.cls-3,.cls-30,.cls-55,.cls-6,.cls-7,.cls-9{stroke-width:2px;}.cls-10,.cls-12,.cls-13,.cls-14,.cls-15,.cls-16,.cls-17,.cls-3,.cls-7{fill:none;}.cls-10,.cls-11,.cls-12,.cls-13,.cls-14,.cls-18,.cls-3,.cls-30,.cls-55{stroke:#2bb5b5;}.cls-11,.cls-4{fill:#dceff3;}.cls-19,.cls-30,.cls-34,.cls-40,.cls-5{fill:#2bb5b5;}.cls-6,.cls-9{fill:#efefef;}.cls-9{stroke:#efefef;}.cls-10{stroke-width:4px;}.cls-12{stroke-dasharray:5.84 5.84;}.cls-13{stroke-dasharray:5.73 5.73;}.cls-14{stroke-dasharray:6.02 6.02;}.cls-15,.cls-16,.cls-17{stroke:#f08089;}.cls-16{stroke-dasharray:5.4 5.4;}.cls-17{stroke-dasharray:5.95 5.95;}.cls-18{fill:#393939;}.cls-19,.cls-31{font-size:12px;}.cls-19,.cls-31,.cls-34,.cls-37,.cls-42{font-family:IBMPlexSans-SemiBold, IBM Plex Sans;font-weight:600;}.cls-20{letter-spacing:-0.01em;}.cls-21{letter-spacing:-0.01em;}.cls-22{letter-spacing:-0.01em;}.cls-23{letter-spacing:-0.01em;}.cls-24{letter-spacing:0em;}.cls-25{letter-spacing:-0.01em;}.cls-26{letter-spacing:-0.01em;}.cls-27{letter-spacing:0em;}.cls-28{letter-spacing:0em;}.cls-29{letter-spacing:0em;}.cls-32{letter-spacing:-0.07em;}.cls-33{letter-spacing:-0.01em;}.cls-34,.cls-37,.cls-40,.cls-42{font-size:7px;}.cls-35{letter-spacing:-0.03em;}.cls-36{letter-spacing:0em;}.cls-38{letter-spacing:0em;}.cls-39{letter-spacing:0em;}.cls-40{font-family:IBMPlexSans-Bold, IBM Plex Sans;font-weight:700;}.cls-41{letter-spacing:-0.02em;}.cls-42{fill:#f08089;}.cls-43{letter-spacing:0.01em;}.cls-44{letter-spacing:0em;}.cls-45{letter-spacing:0.01em;}.cls-46{letter-spacing:-0.01em;}.cls-47{letter-spacing:0em;}.cls-48{letter-spacing:-0.01em;}.cls-49{letter-spacing:-0.01em;}.cls-50{letter-spacing:-0.02em;}.cls-51{letter-spacing:0em;}.cls-52{letter-spacing:-0.03em;}.cls-53{letter-spacing:-0.02em;}.cls-54{letter-spacing:0em;}.cls-56{fill:#2eb6b5;}</style></defs><g id="Warstwa_2" data-name="Warstwa 2"><rect class="cls-1" x="-0.17" width="627.52" height="1269.02"/><path class="cls-2" d="M396.05,619.06,503.43,516.75l4.54,4.82-4.54,4.62,13.62,15-8.29,7.54s9.72,24.36-18,54.8c-14.38,15.78-53.8,55.74-53.8,55.74Z"/><polygon class="cls-2" points="412.47 575.15 412.47 575.15 389.67 550.34 436.15 506.74 459.72 530.55 489.82 502.13 443.67 452.61 335.25 554.53 382.39 603.55 412.47 575.15"/><polyline class="cls-3" points="493.46 506.04 443.67 452.61 335.25 554.53 385.92 607.22"/><polygon class="cls-2" points="314.2 531.9 268.91 483.73 376.46 381.07 422.22 430.07 314.2 531.9"/><polygon class="cls-2" points="352.27 363.44 296.64 321.43 275.62 341.14 298.55 365.7 249.54 411.2 226.22 387.01 213.98 398.95 251.97 457.28 352.27 363.44"/><polyline class="cls-3" points="210.7 393.92 251.97 457.28 352.27 363.44 292.1 318"/><polygon class="cls-2" points="220.2 364.39 187.54 327.96 210.13 307.01 243.94 342.43 279.75 309.29 213.98 262.83 160.62 311.78 202.16 381.07 220.2 364.39"/><g id="reception"><ellipse class="cls-4" cx="544.12" cy="958.66" rx="64.9" ry="49.96"/></g><circle class="cls-5" cx="176.44" cy="230.42" r="21.03"/><line class="cls-6" x1="431.83" y1="556.88" x2="412.47" y2="575.15"/><line class="cls-6" x1="459.08" y1="531.26" x2="439" y2="550.21"/><line class="cls-7" x1="275.11" y1="341.42" x2="259.59" y2="355.52"/><g id="Background"><path class="cls-8" d="M354.88,782.22l80.06-25.7L417.2,698.65l-4.86-5.17-71.06,67.77L320.2,770,217.61,588.07,114.94,491.59l80.79-59.07-18.55-24.8-78.35,59L13.88,255.43,86,186.71l70.53-37.26V81.9l55.18.61V21.91H502.83V362l26.11,29.47L488,428.91l64.11,113.48L487.56,700.9l17.05,55.67L570,736.07l14.33,47.54L518.9,803.26l17.9,58.46,90.7,0L627.4-.48H-.17V1270l627.57-1.13V1042.1l-96.09,0-15.6,61.3-2.61,132.78-84.19-.33.45-105.26,29.31.26,23.56-104.37s-23.24-20-28.39-48S461.27,926,461.27,926l-23.36,7.67Z"/></g><line class="cls-7" x1="251.97" y1="363.23" x2="219.46" y2="393.92"/><line class="cls-6" x1="243.31" y1="342.98" x2="232.05" y2="353.4"/><line class="cls-6" x1="225.35" y1="359.63" x2="214.08" y2="370.05"/><line class="cls-9" x1="499.6" y1="512.63" x2="503.43" y2="516.75"/><line class="cls-9" x1="392.48" y1="615.22" x2="395.84" y2="618.82"/><polyline class="cls-3" points="434.33 442.81 443.67 452.61 335.25 554.53 324.81 543.47"/><path class="cls-3" d="M499.6,512.63l8.37,8.94-4.54,4.62,13.62,15-8.29,7.54s9.72,24.36-18,54.8c-14.38,15.78-53.8,55.74-53.8,55.74l-44.45-44.07"/><polyline class="cls-3" points="284.39 312.57 213.98 262.83 160.62 311.78 204.95 385.72"/><polyline class="cls-3" points="318.31 536.58 314.04 532.05 422.19 430.07 423.68 431.64"/><polyline class="cls-3" points="386.19 372.35 396.13 363.44 415.23 384.09 396.13 402.08 376.46 381.07 372.08 385.26"/><polyline class="cls-3" points="453.81 444.04 463.97 435.43 415.23 384.09 396.13 402.08 426.32 434.47"/><polyline class="cls-3" points="434.33 442.81 443.67 452.61 443.67 452.61"/><polyline class="cls-3" points="368.46 374.84 376.46 381.07 268.91 483.73 263.33 475.03"/><line class="cls-3" x1="536.12" y1="861.69" x2="627.5" y2="861.69"/><line class="cls-10" x1="586" y1="886.43" x2="627.5" y2="886.43"/><polygon class="cls-5" points="590.68 893.28 565.09 886.43 590.68 879.57 590.68 893.28"/><line class="cls-3" x1="530.56" y1="1042.1" x2="627.4" y2="1042.1"/></g><g id="Warstwa_3" data-name="Warstwa 3"><path class="cls-11" d="M466,858.53,479.68,903a107.21,107.21,0,0,0-10.2,9.83c-3.35,4-8.08,13.1-8.08,13.1l-23.35,7.66-40.77-75.09,63.16-19.3,1.34,4.59"/><polyline class="cls-11" points="458.91 834.24 460.44 839.23 397.28 858.53 355.01 782.19 435.07 756.49 436.46 761"/><polyline class="cls-11" points="299.02 562.12 273.79 532.91 215.61 588.07 320.33 769.92 341.41 761.22 412.47 693.45 353.59 625.28"/><line class="cls-11" x1="328.42" y1="595.45" x2="348.06" y2="618.2"/><line class="cls-3" x1="439.19" y1="769.92" x2="456.01" y2="824.78"/><line class="cls-3" x1="306.53" y1="569.76" x2="322.31" y2="588.02"/><polyline class="cls-11" points="261.38 520.03 273.79 532.91 215.61 588.07 174.82 551.18 242.83 500.77 254.45 512.84"/><polyline class="cls-11" points="239.01 494.98 242.83 500.77 174.82 551.18 141.33 519.14 217.79 462.74 233.46 486.55"/><polyline class="cls-11" points="209.43 451.2 217.79 462.74 141.33 519.14 112.94 491.59 195.87 432.49 203.45 442.96"/><path class="cls-11" d="M211.87,123.17v5.16l27.33-.15V247.52l113.41,75.72L503,362V21.88H211.87V97.73"/><rect class="cls-5" x="502.17" y="51.45" width="23.2" height="276.8"/><polyline class="cls-3" points="486.84 32.87 489.84 32.87 489.84 35.87"/><line class="cls-12" x1="489.84" y1="41.72" x2="489.84" y2="85.55"/><polyline class="cls-3" points="489.84 88.47 489.84 91.47 486.84 91.47"/><line class="cls-13" x1="481.1" y1="91.47" x2="472.5" y2="91.47"/><polyline class="cls-3" points="469.63 91.47 466.63 91.47 466.63 88.47"/><line class="cls-12" x1="466.63" y1="82.62" x2="466.63" y2="38.79"/><polyline class="cls-3" points="466.63 35.87 466.63 32.87 469.63 32.87"/><line class="cls-13" x1="475.37" y1="32.87" x2="483.97" y2="32.87"/><polyline class="cls-3" points="507.75 766.38 504.74 756.54 570.13 736.04 584.47 783.58 519.04 803.23 515.6 792.01"/><polyline class="cls-3" points="257.65 466.16 251.97 457.28 352.27 363.44 361.21 369.59"/><line class="cls-3" x1="504.45" y1="184.69" x2="501.45" y2="184.68"/><line class="cls-14" x1="495.43" y1="184.66" x2="245.71" y2="183.67"/><line class="cls-3" x1="242.7" y1="183.66" x2="239.7" y2="183.65"/><line class="cls-15" x1="495.55" y1="443.27" x2="493.25" y2="445.19"/><line class="cls-16" x1="489.09" y1="448.65" x2="466.26" y2="467.68"/><line class="cls-15" x1="464.19" y1="469.41" x2="461.88" y2="471.33"/><line class="cls-15" x1="405.13" y1="629.25" x2="403.09" y2="631.45"/><line class="cls-17" x1="399.06" y1="635.82" x2="384.93" y2="651.13"/><line class="cls-15" x1="382.91" y1="653.32" x2="380.87" y2="655.53"/><line class="cls-18" x1="519.04" y1="803.23" x2="536.93" y2="861.69"/><polyline class="cls-3" points="502.97 361.95 529.07 391.42 488.16 428.88 552.27 542.36 487.7 700.87 504.74 756.54"/><polyline class="cls-3" points="412.47 693.45 417.33 698.62 434.87 755.83"/><polyline class="cls-3" points="195.87 432.49 177.32 407.69 98.97 466.65 14.01 255.4 86.17 186.68 156.7 149.42 156.7 81.87 211.87 82.48"/><rect class="cls-5" x="461.79" y="329.8" width="15.59" height="64.53" transform="translate(936.55 -3.36) rotate(104.32)"/><rect class="cls-5" x="433.74" y="608.32" width="28.83" height="36.7" transform="translate(567.69 -134.43) rotate(44.5)"/><rect class="cls-5" x="419.75" y="618.78" width="10.94" height="43.84" transform="translate(1180.26 786.43) rotate(134.5)"/><polygon class="cls-5" points="412.47 693.45 341.41 761.22 320.33 769.92 299.84 734.33 380.57 656.53 412.47 693.45"/><text class="cls-19" transform="translate(184.65 513.14) rotate(0.15)">VIP</text><text class="cls-19" transform="matrix(1, 0, 0, 1, 424.94, 883.95)"><tspan class="cls-20">P</tspan><tspan class="cls-21" x="7.57" y="0">r</tspan><tspan x="12.23" y="0">e</tspan><tspan class="cls-22" x="18.92" y="0">s</tspan><tspan x="24.83" y="0">s</tspan></text><text class="cls-19" transform="matrix(1, 0, 0, 1, 509.86, 975.29)"><tspan class="cls-23">R</tspan><tspan class="cls-24" x="7.79" y="0">egi</tspan><tspan class="cls-25" x="24.34" y="0">s</tspan><tspan x="30.23" y="0">t</tspan><tspan class="cls-26" x="34.72" y="0">r</tspan><tspan class="cls-27" x="39.3" y="0">a</tspan><tspan x="45.96" y="0">tion</tspan></text><text class="cls-19" transform="translate(383.93 793.61) rotate(0.02)">Spa<tspan class="cls-28" x="21.24" y="0">c</tspan><tspan class="cls-24" x="27.34" y="0">e</tspan><tspan class="cls-29" x="0" y="14.4">f</tspan><tspan x="4.15" y="14.4">or</tspan><tspan x="0" y="28.8">Academics</tspan></text><text class="cls-19" transform="matrix(1, 0, 0, 1, 149.6, 481.58)">1 on 1</text><text class="cls-19" transform="matrix(1, 0, 0, 1, 205.59, 548.76)">1 on 1</text><polygon class="cls-30" points="98.97 466.65 181.8 414.8 125.14 317.49 54.97 357.25 98.97 466.65"/><polygon class="cls-5" points="295.44 557.98 233.32 618.82 215.61 588.07 273.79 532.91 295.44 557.98"/><text class="cls-31" transform="translate(85.4 383.72) rotate(-0.09)">Client<tspan x="0" y="14.4">Engineering</tspan><tspan class="cls-32" x="0" y="28.8">T</tspan><tspan x="6.18" y="28.8">eam</tspan></text><text class="cls-31" transform="translate(509.33 159.17) rotate(90)">Main <tspan class="cls-29" x="29.7" y="0">S</tspan><tspan x="36.98" y="0">ta</tspan><tspan class="cls-33" x="48.18" y="0">g</tspan><tspan x="54.65" y="0">e</tspan></text><text class="cls-19" transform="translate(474.74 41.33) rotate(90)"><tspan class="cls-29">S</tspan><tspan class="cls-24" x="7.28" y="0">ta</tspan><tspan class="cls-33" x="18.48" y="0">g</tspan><tspan x="24.95" y="0">e 1</tspan></text><text class="cls-34" transform="translate(456.26 43.12) rotate(90)"><tspan class="cls-35">F</tspan><tspan class="cls-36" x="3.85" y="0">r</tspan><tspan x="6.57" y="0">om 16:25</tspan></text><text class="cls-34" transform="translate(456.26 117.69) rotate(90)"><tspan class="cls-35">F</tspan><tspan class="cls-36" x="3.85" y="0">r</tspan><tspan x="6.57" y="0">om 16:25</tspan></text><text class="cls-34" transform="matrix(1, 0.03, -0.03, 1, 247.27, 178.61)"><tspan class="cls-35">F</tspan><tspan class="cls-36" x="3.85" y="0">r</tspan><tspan x="6.57" y="0">om 16:25</tspan></text><text class="cls-34" transform="translate(456.26 256) rotate(90)"><tspan class="cls-35">F</tspan><tspan class="cls-36" x="3.85" y="0">r</tspan><tspan x="6.57" y="0">om 16:25</tspan></text><polyline class="cls-3" points="486.84 108.76 489.84 108.76 489.84 111.76"/><line class="cls-12" x1="489.84" y1="117.6" x2="489.84" y2="161.43"/><polyline class="cls-3" points="489.84 164.36 489.84 167.36 486.84 167.36"/><line class="cls-13" x1="481.1" y1="167.36" x2="472.5" y2="167.36"/><polyline class="cls-3" points="469.63 167.36 466.63 167.36 466.63 164.36"/><line class="cls-12" x1="466.63" y1="158.51" x2="466.63" y2="114.68"/><polyline class="cls-3" points="466.63 111.76 466.63 108.76 469.63 108.76"/><line class="cls-13" x1="475.37" y1="108.76" x2="483.97" y2="108.76"/><text class="cls-19" transform="translate(474.74 117.22) rotate(90)"><tspan class="cls-29">S</tspan><tspan class="cls-24" x="7.28" y="0">ta</tspan><tspan class="cls-33" x="18.48" y="0">g</tspan><tspan x="24.95" y="0">e 2</tspan></text><polyline class="cls-3" points="486.84 244.02 489.84 244.02 489.84 247.02"/><line class="cls-12" x1="489.84" y1="252.87" x2="489.84" y2="296.7"/><polyline class="cls-3" points="489.84 299.62 489.84 302.62 486.84 302.62"/><line class="cls-13" x1="481.1" y1="302.62" x2="472.5" y2="302.62"/><polyline class="cls-3" points="469.63 302.62 466.63 302.62 466.63 299.62"/><line class="cls-12" x1="466.63" y1="293.78" x2="466.63" y2="249.95"/><polyline class="cls-3" points="466.63 247.02 466.63 244.02 469.63 244.02"/><line class="cls-13" x1="475.37" y1="244.02" x2="483.97" y2="244.02"/><text class="cls-19" transform="translate(474.74 252.48) rotate(90)"><tspan class="cls-29">S</tspan><tspan class="cls-24" x="7.28" y="0">ta</tspan><tspan class="cls-33" x="18.48" y="0">g</tspan><tspan x="24.95" y="0">e 3</tspan></text><text class="cls-37" transform="translate(158.91 229.01)">Ph<tspan class="cls-38" x="8.6" y="0">ot</tspan><tspan x="15.11" y="0">o</tspan><tspan x="0" y="8.4">Bo</tspan><tspan class="cls-39" x="8.58" y="8.4">o</tspan><tspan x="12.49" y="8.4">th 360</tspan></text><text class="cls-40" transform="matrix(1, 0.03, -0.03, 1, 305.53, 434.41)"><tspan class="cls-41">W</tspan><tspan x="6.65" y="0">C</tspan></text><text class="cls-40" transform="matrix(1, 0.03, -0.03, 1, 390.55, 391.09)"><tspan class="cls-41">W</tspan><tspan x="6.65" y="0">C</tspan></text><text class="cls-40" transform="matrix(1, 0.03, -0.03, 1, 373.78, 503.01)"><tspan class="cls-41">W</tspan><tspan x="6.65" y="0">C</tspan></text><text class="cls-42" transform="translate(475.18 472.89) rotate(-0.19)">No Ent<tspan class="cls-43" x="21.56" y="0">r</tspan><tspan class="cls-44" x="24.37" y="0">y</tspan><tspan x="0" y="8.4">af</tspan><tspan class="cls-39" x="6.36" y="8.4">t</tspan><tspan x="8.95" y="8.4">er 16:00</tspan></text><text class="cls-42" transform="matrix(1, 0, 0, 1, 391.24, 655.53)">Closed<tspan class="cls-45" x="22.09" y="0">-</tspan><tspan class="cls-46" x="24.98" y="0">o</tspan><tspan class="cls-47" x="28.87" y="0">f</tspan><tspan x="31.35" y="0">f</tspan><tspan x="0" y="8.4">ti</tspan><tspan class="cls-48" x="4.55" y="8.4">l</tspan><tspan x="6.56" y="8.4">l 13:35</tspan></text><text class="cls-37" transform="translate(449.69 358.38) rotate(14.32)"><tspan class="cls-49">R</tspan><tspan x="4.54" y="0">ebus </tspan><tspan class="cls-50" x="21.91" y="0">W</tspan><tspan x="28.38" y="0">a</tspan><tspan class="cls-48" x="32.3" y="0">l</tspan><tspan class="cls-51" x="34.31" y="0">l</tspan></text><text class="cls-37" transform="translate(439 625.3) rotate(-0.5)"><tspan class="cls-52">D</tspan><tspan x="4.65" y="0">J</tspan><tspan x="0" y="8.4">Bo</tspan><tspan class="cls-39" x="8.58" y="8.4">o</tspan><tspan x="12.49" y="8.4">th</tspan></text><text class="cls-37" transform="translate(412.42 631.72) rotate(44.5)">Concie<tspan class="cls-53" x="21.98" y="0">r</tspan><tspan class="cls-46" x="24.61" y="0">g</tspan><tspan x="28.38" y="0">e</tspan></text><text class="cls-31" transform="translate(242.83 578.16) rotate(-0.5)">Z16</text><text class="cls-31" transform="translate(333.83 719.95) rotate(-0.5)">Q<tspan class="cls-33" x="8.54" y="0">o</tspan><tspan class="cls-54" x="15.23" y="0">f</tspan><tspan class="cls-27" x="19.46" y="0">f</tspan><tspan x="23.62" y="0">ee</tspan></text><polyline class="cls-55" points="520.7 1083.27 607.41 1083.27 607.78 1247.08 423.67 1246.71 423.67 1083.27 469.54 1083.27"/><line class="cls-11" x1="531.45" y1="1042.1" x2="521.12" y2="1083.67"/><path class="cls-3" d="M479.68,903s-21.47,13-26.5,51.92c-5.58,43.18,29.18,71.52,29.18,71.52l-12.82,56.8"/><path class="cls-56" d="M551.72,935.24a1.94,1.94,0,0,0-.65-.43,2,2,0,0,0-.76-.15h-7.17v-4h-2v4h-8a2,2,0,0,0-2,2v6a2,2,0,0,0,2,2h8v14h2v-14h7.17a2,2,0,0,0,.76-.15,1.83,1.83,0,0,0,.65-.44l4.42-4.41Zm-1.41,7.42H533.14v-6h17.17l3,3Z"/><path class="cls-5" d="M525.78,1169.13l0-5.71a.72.72,0,0,0-.72-.71l-7.15.06a.71.71,0,0,0-.5.21.7.7,0,0,0-.2.51l.05,5.71a4.28,4.28,0,0,0,3.61,4.19l.06,7.93-2.85,0v1.43l7.14-.06v-1.43l-2.86,0-.07-7.92a4.28,4.28,0,0,0,3.54-4.25Zm-7.14.06,0-5,5.72,0,0,5a2.85,2.85,0,0,1-.82,2,2.87,2.87,0,0,1-4,0A2.86,2.86,0,0,1,518.64,1169.19Z"/><path class="cls-5" d="M512.86,1162.81l.06,6.45a2.77,2.77,0,0,1-.81,2,2.83,2.83,0,0,1-2,.85,2.85,2.85,0,0,1-2.91-2.8l-.06-6.45-1.43,0,.06,6.44a4.28,4.28,0,0,0,3.61,4.16l.08,9.36h1.43l-.08-9.36a4.25,4.25,0,0,0,3.53-4.23l-.06-6.44Z"/><path class="cls-5" d="M510.72,1162.83l-1.43,0,.07,7.12h1.42Z"/><path class="cls-5" d="M84.87,249.13v-5.71a.74.74,0,0,0-.2-.51.75.75,0,0,0-.51-.21H77a.72.72,0,0,0-.72.72v5.71a4.31,4.31,0,0,0,3.57,4.22v7.92H77v1.43h7.14v-1.43H81.3v-7.92a4.28,4.28,0,0,0,3.57-4.22Zm-7.14,0v-5h5.72v5A2.87,2.87,0,0,1,80.59,252a2.87,2.87,0,0,1-2.86-2.86Z"/><path class="cls-5" d="M72,242.7v6.45A2.83,2.83,0,0,1,69.19,252a2.84,2.84,0,0,1-2-.81,2.88,2.88,0,0,1-.86-2V242.7H64.87v6.45a4.27,4.27,0,0,0,1,2.74,4.2,4.2,0,0,0,2.55,1.44v9.37h1.42v-9.36a4.22,4.22,0,0,0,2.56-1.44,4.34,4.34,0,0,0,1-2.75V242.7Z"/><path class="cls-5" d="M69.87,242.7H68.45v7.13h1.42Z"/><path class="cls-5" d="M312.44,425.54l-2.34-.06a1.18,1.18,0,0,1-1.14-1.2l.12-4.1a1.18,1.18,0,0,1-1.14-1.2l.1-3.51a1.76,1.76,0,0,1,1.8-1.71l3.51.1a1.74,1.74,0,0,1,1.23.55,1.77,1.77,0,0,1,.48,1.25l-.1,3.51a1.18,1.18,0,0,1-1.2,1.14l-.12,4.1a1.17,1.17,0,0,1-.36.81A1.15,1.15,0,0,1,312.44,425.54Zm-2.63-10.61a.45.45,0,0,0-.23,0,.51.51,0,0,0-.2.12.5.5,0,0,0-.13.19.45.45,0,0,0,0,.23l-.1,3.51,1.17,0-.15,5.27,2.34.06.15-5.26,1.17,0,.1-3.51a.58.58,0,0,0,0-.23.82.82,0,0,0-.12-.2.5.5,0,0,0-.19-.13.59.59,0,0,0-.23,0Z"/><path class="cls-5" d="M311.61,413.23a2.41,2.41,0,0,1-1.29-.44,2.38,2.38,0,0,1-.83-1.07,2.33,2.33,0,0,1-.09-1.36,2.3,2.3,0,0,1,.67-1.18,2.35,2.35,0,0,1,1.22-.6,2.29,2.29,0,0,1,1.34.17A2.34,2.34,0,0,1,314,411a2.37,2.37,0,0,1-.73,1.64A2.42,2.42,0,0,1,311.61,413.23Zm.1-3.52a1.22,1.22,0,0,0-.65.18,1.19,1.19,0,0,0-.45.52,1.28,1.28,0,0,0-.09.67,1.19,1.19,0,0,0,.31.61,1.16,1.16,0,0,0,1.27.29,1.2,1.2,0,0,0,.75-1.06,1.18,1.18,0,0,0-1.14-1.21Z"/><path class="cls-5" d="M380.21,495.34l-2.34-.07a1.15,1.15,0,0,1-.82-.36,1.19,1.19,0,0,1-.32-.84l.07-2.38-2.17-.07a.47.47,0,0,1-.44-.6,72.38,72.38,0,0,1,2.16-7,1.73,1.73,0,0,1,1.26-.48l3.51.1a1.77,1.77,0,0,1,1.23.54,70.62,70.62,0,0,1,1.58,7.12.46.46,0,0,1-.47.55l-2-.05-.07,2.38a1.18,1.18,0,0,1-1.2,1.14Zm-2.63-10.61a.58.58,0,0,0-.23,0,.56.56,0,0,0-.2.12.53.53,0,0,0-.13.2.45.45,0,0,0,0,.23l-1.43,5.36,2.44.07-.09,3.37,2.34.07.09-3.37,2.56.07-1.23-5.44a.85.85,0,0,0,0-.23.56.56,0,0,0-.12-.2.59.59,0,0,0-.19-.13.47.47,0,0,0-.23,0Z"/><path class="cls-5" d="M379.38,483a2.34,2.34,0,0,1-2.12-1.5,2.35,2.35,0,0,1-.1-1.36,2.39,2.39,0,0,1,.68-1.18,2.33,2.33,0,0,1,1.21-.61,2.4,2.4,0,0,1,1.35.17,2.37,2.37,0,0,1,1.39,2.21,2.34,2.34,0,0,1-2.41,2.27Zm.1-3.51a1.2,1.2,0,0,0-.66.18,1.15,1.15,0,0,0-.44.51,1.14,1.14,0,0,0-.09.68,1.17,1.17,0,0,0,.9.94,1.19,1.19,0,0,0,1.21-.46,1.16,1.16,0,0,0-.1-1.48A1.18,1.18,0,0,0,379.48,479.51Z"/><path class="cls-5" d="M552.89,773.51l-8.61-4.6,0-1.42a3.53,3.53,0,0,0,1.73-1,3.67,3.67,0,0,0,.75-3.81,3.65,3.65,0,0,0-1.21-1.61,3.66,3.66,0,0,0-5.34,1,3.59,3.59,0,0,0-.53,1.94l1.83,0a1.85,1.85,0,0,1,.63-1.25,1.78,1.78,0,0,1,.63-.35,1.72,1.72,0,0,1,.71-.09,1.89,1.89,0,0,1,.69.2,1.59,1.59,0,0,1,.56.44,1.83,1.83,0,0,1,.36.62,1.9,1.9,0,0,1,.08.71,1.91,1.91,0,0,1-1.92,1.54h0a.82.82,0,0,0-.57.24.79.79,0,0,0-.23.58l0,2.31-8.54,4.75a2.9,2.9,0,0,0-1.25,1.36,2.58,2.58,0,0,0,1.14,3.33,2.46,2.46,0,0,0,1.24.31l16.82-.14a2.67,2.67,0,0,0,1.23-.34,2.5,2.5,0,0,0,.92-.88,2.48,2.48,0,0,0,.39-1.21,2.62,2.62,0,0,0-.23-1.26,2.87,2.87,0,0,0-1.28-1.34Zm-1,3.2-16.82.14a.69.69,0,0,1-.52-.21.78.78,0,0,1-.23-.52.85.85,0,0,1,.13-.47.92.92,0,0,1,.34-.34l8.64-4.81,8.71,4.66a.8.8,0,0,1,.35.33,1,1,0,0,1,.14.47.74.74,0,0,1-.22.52.76.76,0,0,1-.52.23Z"/><path class="cls-5" d="M401.75,382l-1.18.55-1-2.57-3.31-.09a.75.75,0,0,1-.54-.24.73.73,0,0,1-.2-.54l.06-2.3a.77.77,0,0,1,.24-.53.75.75,0,0,1,.55-.21.77.77,0,0,1,.74.78l0,1.53,2.67.08,0-.77-1.92-.05,0-.77a1.49,1.49,0,0,0-.41-1.09,1.53,1.53,0,0,0-2.17-.06,1.59,1.59,0,0,0-.48,1.07v.38a3.46,3.46,0,0,0-3.15,1.86,3.49,3.49,0,0,0-.38,1.87,3.45,3.45,0,0,0,4.11,3.09,3.52,3.52,0,0,0,1.69-.87,3.47,3.47,0,0,0,1-1.65l-.79,0a2.69,2.69,0,0,1-3.6,1.63,2.69,2.69,0,0,1-1.13-.93,2.62,2.62,0,0,1-.49-1.38,2.7,2.7,0,0,1,.32-1.42,2.64,2.64,0,0,1,1-1.05,2.61,2.61,0,0,1,1.41-.36l0,1.14a1.54,1.54,0,0,0,1.49,1.58l2.8.08,1.13,2.85,1.92-.9Z"/><path class="cls-5" d="M396.57,374.89a1.31,1.31,0,0,1-.74-.24,1.32,1.32,0,0,1-.47-.62,1.26,1.26,0,0,1-.06-.77,1.34,1.34,0,0,1,.39-.68,1.29,1.29,0,0,1,.69-.34,1.35,1.35,0,0,1,.77.09,1.34,1.34,0,0,1,.59.51,1.44,1.44,0,0,1,.21.75,1.33,1.33,0,0,1-.42.94A1.37,1.37,0,0,1,396.57,374.89Zm.05-1.91a.62.62,0,0,0-.32.09.67.67,0,0,0-.22.25.63.63,0,0,0,0,.33.57.57,0,0,0,.15.3.66.66,0,0,0,.29.17.61.61,0,0,0,.33,0,.52.52,0,0,0,.26-.2.52.52,0,0,0,.11-.32.58.58,0,0,0-.56-.59Z"/><path class="cls-5" d="M221,343.89l-6.1-.17,0-1.11,5.55.16.41-14.56-7.25-.2-.08,2.94-1.11,0,.1-3.49a.55.55,0,0,1,.57-.54l8.35.23a.56.56,0,0,1,.54.57l-.44,15.66A.55.55,0,0,1,221,343.89Zm-7.79-.41-1.11,0,.11-3.79-.48-.5L210,340.81a.59.59,0,0,1-.4.15l-3.5-.1,0-1.11,3.27.1,1.58-1.5-.06-.07a1.9,1.9,0,0,1,.09-3l1.1-1-1,0-1.71,1.61-.76-.8,1.88-1.78a.6.6,0,0,1,.4-.15l3.13.09a1.67,1.67,0,0,1,1.16.5l1.11,1.13,2.75.08,0,1.11-3-.09a.5.5,0,0,1-.38-.17l-1.26-1.29a.56.56,0,0,0-.4-.16,1.51,1.51,0,0,0-.67.34l-1.54,1.46a1.13,1.13,0,0,0-.43.7,1.15,1.15,0,0,0,.39.73l1.46,1.55a.54.54,0,0,1,.15.39Zm3.09-10.38a1.86,1.86,0,1,1,1.91-1.8A1.85,1.85,0,0,1,216.3,333.1Zm.07-2.6a.74.74,0,0,0-.77.73.76.76,0,0,0,.73.77.76.76,0,0,0,.78-.73A.75.75,0,0,0,216.37,330.5Z"/><path class="cls-5" d="M262.48,387.08l-6.11-.18,0-1.1L262,386l.4-14.56-7.24-.2-.09,2.94-1.1,0,.1-3.5a.54.54,0,0,1,.56-.53l8.36.23a.55.55,0,0,1,.53.57l-.43,15.66A.57.57,0,0,1,262.48,387.08Zm-7.8-.41-1.1,0,.1-3.79-.47-.51L251.46,384a.5.5,0,0,1-.39.15l-3.5-.09,0-1.11,3.27.09,1.58-1.49-.06-.07a1.89,1.89,0,0,1,.08-3l1.11-1.05-1.05,0L250.82,379l-.76-.81,1.87-1.77a.62.62,0,0,1,.4-.15l3.13.09a1.67,1.67,0,0,1,1.16.49l1.11,1.14,2.75.08,0,1.1-3-.08a.58.58,0,0,1-.39-.17l-1.26-1.29a.59.59,0,0,0-.4-.17,1.73,1.73,0,0,0-.67.35l-1.53,1.45a1.13,1.13,0,0,0-.43.71,1.08,1.08,0,0,0,.39.73l1.46,1.55a.54.54,0,0,1,.14.39Zm3.1-10.38a1.86,1.86,0,1,1,1.91-1.8A1.86,1.86,0,0,1,257.78,376.29Zm.07-2.61a.76.76,0,1,0,.73.78A.76.76,0,0,0,257.85,373.68Z"/><path class="cls-5" d="M429.17,549.23l-6.11-.17,0-1.1,5.56.15.41-14.56-7.25-.2-.08,2.95-1.11,0,.1-3.5a.55.55,0,0,1,.57-.54l8.35.24a.55.55,0,0,1,.54.56l-.44,15.66A.55.55,0,0,1,429.17,549.23Zm-7.79-.41-1.11,0,.11-3.79-.48-.5-1.75,1.65a.54.54,0,0,1-.39.15l-3.5-.1,0-1.1,3.27.09,1.58-1.5-.06-.06a1.92,1.92,0,0,1,.08-3l1.11-1-1,0-1.71,1.61-.76-.8,1.88-1.77a.5.5,0,0,1,.39-.15l3.14.09a1.7,1.7,0,0,1,1.16.49l1.1,1.14,2.75.07,0,1.11-3-.09a.53.53,0,0,1-.38-.16l-1.27-1.3a.53.53,0,0,0-.39-.16,1.5,1.5,0,0,0-.67.35l-1.54,1.45a1.16,1.16,0,0,0-.43.7,1.15,1.15,0,0,0,.39.73l1.46,1.55a.57.57,0,0,1,.15.4Zm3.09-10.37a1.86,1.86,0,1,1,1.91-1.81A1.87,1.87,0,0,1,424.47,538.45Zm.07-2.61a.75.75,0,1,0,.73.77A.75.75,0,0,0,424.54,535.84Z"/></g></svg>