<svg xmlns="http://www.w3.org/2000/svg" viewBox="0 0 628.59 1287.5"><defs><style>.cls-1,.cls-31,.cls-34,.cls-39,.cls-50,.cls-54,.cls-58,.cls-60{fill:#fff;}.cls-2,.cls-8{fill:#f3f3f3;}.cls-2,.cls-6,.cls-7{stroke:#f3f3f3;}.cls-10,.cls-11,.cls-12,.cls-13,.cls-14,.cls-15,.cls-16,.cls-17,.cls-18,.cls-2,.cls-3,.cls-30,.cls-6,.cls-60,.cls-7,.cls-9{stroke-miterlimit:10;}.cls-10,.cls-12,.cls-13,.cls-14,.cls-15,.cls-16,.cls-17,.cls-18,.cls-2,.cls-3,.cls-30,.cls-6,.cls-60,.cls-7,.cls-9{stroke-width:2px;}.cls-11,.cls-12,.cls-13,.cls-14,.cls-15,.cls-16,.cls-17,.cls-3,.cls-7{fill:none;}.cls-10,.cls-12,.cls-13,.cls-14,.cls-18,.cls-3,.cls-30,.cls-60{stroke:#2bb5b5;}.cls-10,.cls-4{fill:#dceff3;}.cls-19,.cls-30,.cls-36,.cls-42,.cls-5{fill:#2bb5b5;}.cls-6,.cls-9{fill:#efefef;}.cls-9{stroke:#efefef;}.cls-11{stroke:#6e4293;stroke-width:3px;}.cls-12{stroke-dasharray:5.84 5.84;}.cls-13{stroke-dasharray:5.73 5.73;}.cls-14{stroke-dasharray:6.02 6.02;}.cls-15,.cls-16,.cls-17{stroke:#f08089;}.cls-16{stroke-dasharray:5.4 5.4;}.cls-17{stroke-dasharray:6.22 6.22;}.cls-18{fill:#393939;}.cls-19,.cls-31,.cls-34,.cls-58{font-size:12px;}.cls-19,.cls-31,.cls-34,.cls-36,.cls-39,.cls-44,.cls-50,.cls-54,.cls-58{font-family:IBMPlexSans-SemiBold, IBM Plex Sans;font-weight:600;}.cls-20{letter-spacing:-0.01em;}.cls-21{letter-spacing:-0.01em;}.cls-22{letter-spacing:-0.01em;}.cls-23{letter-spacing:-0.01em;}.cls-24{letter-spacing:0em;}.cls-25{letter-spacing:-0.01em;}.cls-26{letter-spacing:-0.01em;}.cls-27{letter-spacing:0em;}.cls-28{letter-spacing:0em;}.cls-29{letter-spacing:0em;}.cls-31,.cls-33{letter-spacing:0.03em;}.cls-32{letter-spacing:-0.04em;}.cls-35{letter-spacing:-0.01em;}.cls-36,.cls-39,.cls-42,.cls-44,.cls-50,.cls-54{font-size:7px;}.cls-37{letter-spacing:-0.03em;}.cls-38{letter-spacing:0em;}.cls-39,.cls-51{letter-spacing:0.03em;}.cls-40{letter-spacing:0.02em;}.cls-41{letter-spacing:0.02em;}.cls-42{font-family:IBMPlexSans-Bold, IBM Plex Sans;font-weight:700;}.cls-43{letter-spacing:-0.02em;}.cls-44{fill:#f08089;}.cls-45{letter-spacing:0.01em;}.cls-46{letter-spacing:0em;}.cls-47{letter-spacing:0em;}.cls-48{letter-spacing:0em;}.cls-49{letter-spacing:0em;}.cls-50{letter-spacing:0.01em;}.cls-52{letter-spacing:0em;}.cls-53{letter-spacing:0.02em;}.cls-54{letter-spacing:0em;}.cls-55{letter-spacing:0.03em;}.cls-56{letter-spacing:0.01em;}.cls-57{letter-spacing:0.02em;}.cls-58{letter-spacing:0.03em;}.cls-59{letter-spacing:0.03em;}.cls-61{fill:#2eb6b5;}</style></defs><g id="Warstwa_2" data-name="Warstwa 2"><rect class="cls-1" y="8.48" width="627.52" height="1269.02"/><path class="cls-2" d="M396.05,619.06,503.43,516.75l4.54,4.82-4.54,4.62,13.62,15-8.29,7.54s9.72,24.36-18,54.8c-14.38,15.78-53.8,55.74-53.8,55.74Z" transform="translate(0.17 8.48)"/><polygon class="cls-2" points="412.64 583.63 412.64 583.63 389.84 558.82 436.32 515.22 459.89 539.03 489.99 510.61 443.84 461.09 335.42 563.01 382.56 612.03 412.64 583.63"/><path class="cls-3" d="M412.47,575.15" transform="translate(0.17 8.48)"/><polyline class="cls-3" points="493.63 514.52 443.84 461.09 335.42 563.01 386.09 615.7"/><polygon class="cls-2" points="314.36 540.38 269.07 492.21 376.63 389.55 422.39 438.55 314.36 540.38"/><polygon class="cls-2" points="352.43 371.92 296.81 329.91 275.79 349.62 298.71 374.19 249.71 419.68 226.38 395.49 214.14 407.43 252.14 465.76 352.43 371.92"/><polyline class="cls-3" points="210.87 402.4 252.14 465.76 352.43 371.92 292.27 326.48"/><polygon class="cls-2" points="220.36 372.87 187.71 336.44 210.3 315.49 244.1 350.91 279.92 317.77 214.14 271.31 160.78 320.26 202.33 389.55 220.36 372.87"/><g id="reception"><ellipse class="cls-4" cx="550.7" cy="948.95" rx="76.04" ry="58.53" transform="translate(-363.58 351.16) rotate(-26.33)"/></g><g id="reception-2" data-name="reception"><path class="cls-3" d="M559.78,872.36c28.93-3.91,56.9,8.75,67.75,30.67" transform="translate(0.17 8.48)"/><polygon class="cls-5" points="565.18 885.79 542.75 885.11 562.52 874.48 565.18 885.79"/></g><circle class="cls-5" cx="176.6" cy="238.9" r="21.03"/><line class="cls-6" x1="431.99" y1="565.36" x2="412.64" y2="583.63"/><line class="cls-6" x1="459.25" y1="539.74" x2="439.17" y2="558.69"/><line class="cls-7" x1="275.27" y1="349.9" x2="259.76" y2="364"/><g id="Background"><path class="cls-8" d="M354.88,782.22l80.06-25.7L417.2,698.65l-4.86-5.17-71.06,67.77L320.2,770,217.61,588.07,114.94,491.59l80.79-59.07-18.55-24.8-78.35,59L13.88,255.43,86,186.71l70.53-37.26V81.9l55.18.61V21.91H502.83V362l26.11,29.47L488,428.91l64.11,113.48L487.56,700.9l17.05,55.67L570,736.07l14.33,47.54L518.9,803.26l17.9,58.46s14.5-6.94,39.55-6.58c27.63.41,51,23.07,51,23.07L627.4-8.48H-.17V1279l627.57-1.13V998.44s-21.14,25.5-47.28,35.17a136.25,136.25,0,0,1-48.81,8.52l-15.6,61.3-2.61,132.78-84.19-.33.45-105.26,29.31.26,23.56-104.37s-23.24-20-28.39-48S461.27,926,461.27,926l-23.36,7.67Z" transform="translate(0.17 8.48)"/></g><line class="cls-7" x1="252.14" y1="371.71" x2="219.63" y2="402.4"/><path class="cls-9" d="M220.79,363.81" transform="translate(0.17 8.48)"/><line class="cls-6" x1="243.48" y1="351.46" x2="232.22" y2="361.88"/><line class="cls-6" x1="225.51" y1="368.11" x2="214.25" y2="378.53"/><line class="cls-9" x1="499.76" y1="521.11" x2="503.6" y2="525.23"/><line class="cls-9" x1="392.64" y1="623.7" x2="396" y2="627.3"/><polyline class="cls-3" points="434.5 451.29 443.84 461.09 335.42 563.01 324.98 551.95"/><path class="cls-3" d="M499.6,512.63l8.37,8.94-4.54,4.62,13.62,15-8.29,7.54s9.72,24.36-18,54.8c-14.38,15.78-53.8,55.74-53.8,55.74l-44.45-44.07" transform="translate(0.17 8.48)"/><polyline class="cls-3" points="284.56 321.05 214.14 271.31 160.78 320.26 205.12 394.2"/><polyline class="cls-3" points="318.48 545.05 314.21 540.53 422.35 438.55 423.85 440.12"/><polyline class="cls-3" points="386.36 380.83 396.3 371.92 415.39 392.57 396.3 410.56 376.63 389.55 372.24 393.74"/><polyline class="cls-3" points="453.98 452.51 464.14 443.91 415.39 392.57 396.3 410.56 426.49 442.95"/><polyline class="cls-3" points="434.5 451.29 443.84 461.09 443.84 461.09"/><polyline class="cls-3" points="368.63 383.32 376.63 389.55 269.07 492.21 263.5 483.51"/></g><g id="Warstwa_3" data-name="Warstwa 3"><path class="cls-10" d="M466,858.53,479.68,903a107.21,107.21,0,0,0-10.2,9.83c-3.35,4-8.08,13.1-8.08,13.1l-23.35,7.66-40.77-75.09,63.16-19.3,1.34,4.59" transform="translate(0.17 8.48)"/><polyline class="cls-10" points="459.08 842.72 460.61 847.71 397.45 867.01 355.18 790.67 435.24 764.97 436.62 769.48"/><polyline class="cls-10" points="299.19 570.6 273.95 541.39 215.78 596.55 320.5 778.4 341.58 769.7 412.64 701.93 353.75 633.76"/><line class="cls-10" x1="328.58" y1="603.93" x2="348.23" y2="626.68"/><line class="cls-3" x1="439.36" y1="778.4" x2="456.18" y2="833.26"/><line class="cls-3" x1="306.7" y1="578.24" x2="322.47" y2="596.5"/><polyline class="cls-10" points="261.54 528.51 273.95 541.39 215.78 596.55 174.99 559.66 242.99 509.25 254.62 521.32"/><polyline class="cls-10" points="239.18 503.46 242.99 509.25 174.99 559.66 141.49 527.62 217.96 471.22 233.63 495.03"/><polyline class="cls-10" points="209.59 459.68 217.96 471.22 141.49 527.62 113.11 500.07 196.03 440.97 203.62 451.44"/><path class="cls-11" d="M122.78,300" transform="translate(0.17 8.48)"/><path class="cls-10" d="M211.87,123.17v5.16l27.33-.15V247.52l113.41,75.72L503,362V21.88H211.87V97.73" transform="translate(0.17 8.48)"/><rect class="cls-5" x="502.34" y="59.93" width="23.2" height="276.8"/><polyline class="cls-3" points="487 41.35 490 41.35 490 44.35"/><line class="cls-12" x1="490" y1="50.2" x2="490" y2="94.03"/><polyline class="cls-3" points="490 96.95 490 99.95 487 99.95"/><line class="cls-13" x1="481.27" y1="99.95" x2="472.67" y2="99.95"/><polyline class="cls-3" points="469.8 99.95 466.8 99.95 466.8 96.95"/><line class="cls-12" x1="466.8" y1="91.1" x2="466.8" y2="47.27"/><polyline class="cls-3" points="466.8 44.35 466.8 41.35 469.8 41.35"/><line class="cls-13" x1="475.54" y1="41.35" x2="484.14" y2="41.35"/><polyline class="cls-3" points="507.92 774.86 504.91 765.02 570.3 744.52 584.63 792.06 519.2 811.71 515.77 800.49"/><polyline class="cls-3" points="257.82 474.64 252.14 465.76 352.43 371.92 361.37 378.07"/><line class="cls-3" x1="504.62" y1="193.17" x2="501.62" y2="193.16"/><line class="cls-14" x1="495.6" y1="193.14" x2="245.87" y2="192.15"/><line class="cls-3" x1="242.87" y1="192.14" x2="239.87" y2="192.13"/><line class="cls-15" x1="495.72" y1="451.75" x2="493.41" y2="453.67"/><line class="cls-16" x1="489.26" y1="457.13" x2="466.43" y2="476.16"/><line class="cls-15" x1="464.35" y1="477.89" x2="462.05" y2="479.81"/><line class="cls-15" x1="405.92" y1="637.72" x2="403.88" y2="639.93"/><line class="cls-17" x1="399.66" y1="644.5" x2="384.89" y2="660.51"/><line class="cls-15" x1="382.78" y1="662.8" x2="380.74" y2="665.01"/><line class="cls-18" x1="519.2" y1="811.71" x2="537.1" y2="870.17"/><polyline class="cls-3" points="503.13 370.43 529.24 399.9 488.33 437.36 552.44 550.84 487.87 709.35 504.91 765.02"/><polyline class="cls-3" points="412.64 701.93 417.5 707.1 435.04 764.31"/><polyline class="cls-3" points="196.03 440.97 177.48 416.17 99.13 475.13 14.18 263.88 86.33 195.16 156.86 157.9 156.86 90.35 212.04 90.96"/><rect class="cls-5" x="461.79" y="329.8" width="15.59" height="64.53" transform="translate(936.72 5.12) rotate(104.32)"/><rect class="cls-5" x="433.74" y="608.32" width="28.83" height="36.7" transform="translate(567.85 -125.95) rotate(44.5)"/><rect class="cls-5" x="419.75" y="618.78" width="10.94" height="43.84" transform="translate(1180.42 794.91) rotate(134.5)"/><polygon class="cls-5" points="412.64 701.93 341.58 769.7 320.5 778.4 300.01 742.81 380.74 665.01 412.64 701.93"/><text class="cls-19" transform="translate(184.82 521.62) rotate(0.15)">VIP</text><text class="cls-19" transform="matrix(1, 0, 0, 1, 425.11, 892.43)"><tspan class="cls-20">P</tspan><tspan class="cls-21" x="7.57" y="0">r</tspan><tspan x="12.23" y="0">e</tspan><tspan class="cls-22" x="18.92" y="0">s</tspan><tspan x="24.83" y="0">s</tspan></text><text class="cls-19" transform="matrix(1, 0, 0, 1, 515.67, 975.48)"><tspan class="cls-23">R</tspan><tspan class="cls-24" x="7.79" y="0">egi</tspan><tspan class="cls-25" x="24.34" y="0">s</tspan><tspan x="30.23" y="0">t</tspan><tspan class="cls-26" x="34.72" y="0">r</tspan><tspan class="cls-27" x="39.3" y="0">a</tspan><tspan x="45.96" y="0">tion</tspan></text><text class="cls-19" transform="translate(384.1 802.09) rotate(0.02)">Spa<tspan class="cls-28" x="21.24" y="0">c</tspan><tspan class="cls-24" x="27.34" y="0">e</tspan><tspan class="cls-29" x="0" y="14.4">f</tspan><tspan x="4.15" y="14.4">or</tspan><tspan x="0" y="28.8">Academics</tspan></text><text class="cls-19" transform="matrix(1, 0, 0, 1, 149.77, 490.06)">1 on 1</text><text class="cls-19" transform="matrix(1, 0, 0, 1, 205.75, 557.24)">1 on 1</text><polygon class="cls-30" points="99.13 475.13 181.97 423.28 125.31 325.97 55.13 365.73 99.13 475.13"/><polygon class="cls-5" points="295.61 566.46 233.49 627.3 215.78 596.55 273.95 541.39 295.61 566.46"/><text class="cls-31" transform="translate(85.56 392.2) rotate(-0.09)">Client<tspan x="0" y="14.4">Engineering</tspan><tspan class="cls-32"><tspan x="0" y="28.8">T</tspan><tspan class="cls-33" x="6.49" y="28.8">eam</tspan></tspan></text><text class="cls-34" transform="translate(509.5 167.65) rotate(90)">Main <tspan class="cls-29" x="29.7" y="0">S</tspan><tspan x="36.98" y="0">ta</tspan><tspan class="cls-35" x="48.18" y="0">g</tspan><tspan x="54.65" y="0">e</tspan></text><text class="cls-19" transform="translate(474.9 49.81) rotate(90)"><tspan class="cls-29">S</tspan><tspan class="cls-24" x="7.28" y="0">ta</tspan><tspan class="cls-35" x="18.48" y="0">g</tspan><tspan x="24.95" y="0">e 1</tspan></text><text class="cls-36" transform="translate(456.43 51.6) rotate(90)"><tspan class="cls-37">F</tspan><tspan class="cls-38" x="3.85" y="0">r</tspan><tspan x="6.57" y="0">om 16:25</tspan></text><text class="cls-36" transform="translate(456.43 126.17) rotate(90)"><tspan class="cls-37">F</tspan><tspan class="cls-38" x="3.85" y="0">r</tspan><tspan x="6.57" y="0">om 16:25</tspan></text><text class="cls-36" transform="matrix(1, 0.03, -0.03, 1, 247.44, 187.09)"><tspan class="cls-37">F</tspan><tspan class="cls-38" x="3.85" y="0">r</tspan><tspan x="6.57" y="0">om 16:25</tspan></text><text class="cls-36" transform="translate(456.43 264.48) rotate(90)"><tspan class="cls-37">F</tspan><tspan class="cls-38" x="3.85" y="0">r</tspan><tspan x="6.57" y="0">om 16:25</tspan></text><polyline class="cls-3" points="487 117.24 490 117.24 490 120.24"/><line class="cls-12" x1="490" y1="126.08" x2="490" y2="169.91"/><polyline class="cls-3" points="490 172.84 490 175.84 487 175.84"/><line class="cls-13" x1="481.27" y1="175.84" x2="472.67" y2="175.84"/><polyline class="cls-3" points="469.8 175.84 466.8 175.84 466.8 172.84"/><line class="cls-12" x1="466.8" y1="166.99" x2="466.8" y2="123.16"/><polyline class="cls-3" points="466.8 120.24 466.8 117.24 469.8 117.24"/><line class="cls-13" x1="475.54" y1="117.24" x2="484.14" y2="117.24"/><text class="cls-19" transform="translate(474.9 125.7) rotate(90)"><tspan class="cls-29">S</tspan><tspan class="cls-24" x="7.28" y="0">ta</tspan><tspan class="cls-35" x="18.48" y="0">g</tspan><tspan x="24.95" y="0">e 2</tspan></text><polyline class="cls-3" points="487 252.5 490 252.5 490 255.5"/><line class="cls-12" x1="490" y1="261.35" x2="490" y2="305.18"/><polyline class="cls-3" points="490 308.1 490 311.1 487 311.1"/><line class="cls-13" x1="481.27" y1="311.1" x2="472.67" y2="311.1"/><polyline class="cls-3" points="469.8 311.1 466.8 311.1 466.8 308.1"/><line class="cls-12" x1="466.8" y1="302.26" x2="466.8" y2="258.43"/><polyline class="cls-3" points="466.8 255.5 466.8 252.5 469.8 252.5"/><line class="cls-13" x1="475.54" y1="252.5" x2="484.14" y2="252.5"/><text class="cls-19" transform="translate(474.9 260.96) rotate(90)"><tspan class="cls-29">S</tspan><tspan class="cls-24" x="7.28" y="0">ta</tspan><tspan class="cls-35" x="18.48" y="0">g</tspan><tspan x="24.95" y="0">e 3</tspan></text><text class="cls-39" transform="translate(159.08 237.49)">Ph<tspan class="cls-40" x="8.97" y="0">ot</tspan><tspan x="15.83" y="0">o</tspan><tspan x="0" y="8.4">Bo</tspan><tspan class="cls-41" x="8.95" y="8.4">o</tspan><tspan x="13.04" y="8.4">th 360</tspan></text><text class="cls-42" transform="matrix(1, 0.03, -0.03, 1, 305.69, 442.89)"><tspan class="cls-43">W</tspan><tspan x="6.65" y="0">C</tspan></text><text class="cls-42" transform="matrix(1, 0.03, -0.03, 1, 390.72, 399.57)"><tspan class="cls-43">W</tspan><tspan x="6.65" y="0">C</tspan></text><text class="cls-42" transform="matrix(1, 0.03, -0.03, 1, 373.95, 511.49)"><tspan class="cls-43">W</tspan><tspan x="6.65" y="0">C</tspan></text><text class="cls-44" transform="translate(475.35 481.37) rotate(-0.19)">No Ent<tspan class="cls-45" x="21.56" y="0">r</tspan><tspan class="cls-46" x="24.37" y="0">y</tspan><tspan x="0" y="8.4">af</tspan><tspan class="cls-47" x="6.36" y="8.4">t</tspan><tspan x="8.95" y="8.4">er 16:00</tspan></text><text class="cls-44" transform="matrix(1, 0, 0, 1, 391.41, 666.01)">No Ent<tspan class="cls-45" x="21.56" y="0">r</tspan><tspan class="cls-46" x="24.37" y="0">y</tspan><tspan x="0" y="8.4">be</tspan><tspan class="cls-48" x="8.11" y="8.4">f</tspan><tspan x="10.53" y="8.4">o</tspan><tspan class="cls-49" x="14.47" y="8.4">r</tspan><tspan x="17.18" y="8.4">e 13:35</tspan></text><text class="cls-50" transform="translate(448.27 366.45) rotate(14.32)">R<tspan class="cls-51" x="4.72" y="0">ebus </tspan><tspan class="cls-52" x="23" y="0">W</tspan><tspan class="cls-51" x="29.66" y="0">a</tspan><tspan class="cls-53" x="33.75" y="0">l</tspan><tspan class="cls-51" x="35.94" y="0">l</tspan></text><text class="cls-54" transform="translate(439.17 633.78) rotate(-0.5)">D<tspan class="cls-55" x="4.83" y="0">J</tspan><tspan class="cls-51"><tspan x="0" y="8.4">Bo</tspan><tspan class="cls-41" x="8.95" y="8.4">o</tspan><tspan x="13.04" y="8.4">th</tspan></tspan></text><text class="cls-39" transform="translate(411.55 639.18) rotate(44.5)">Concie<tspan class="cls-56" x="23.07" y="0">r</tspan><tspan class="cls-57" x="25.89" y="0">g</tspan><tspan x="29.84" y="0">e</tspan></text><text class="cls-58" transform="translate(242.99 586.64) rotate(-0.5)">Z16</text><text class="cls-31" transform="translate(333.99 728.43) rotate(-0.5)">Q<tspan class="cls-57" x="8.86" y="0">o</tspan><tspan class="cls-59" x="15.85" y="0">f</tspan><tspan class="cls-40" x="20.4" y="0">f</tspan><tspan x="24.86" y="0">ee</tspan></text><path class="cls-60" d="M520.7,1082.79a190.87,190.87,0,0,0,50-8.74,203.51,203.51,0,0,0,36.68-16l.43,189-184.11-.37V1082.42l45.87.85" transform="translate(0.17 8.48)"/><line class="cls-10" x1="531.62" y1="1050.58" x2="521.29" y2="1092.15"/><path class="cls-3" d="M479.68,903s-21.47,13-26.5,51.92c-5.58,43.18,29.18,71.52,29.18,71.52l-12.82,56.8" transform="translate(0.17 8.48)"/><path class="cls-61" d="M555.85,927a1.94,1.94,0,0,0-.65-.43,2,2,0,0,0-.76-.15h-7.17v-4h-2v4h-8a2,2,0,0,0-2,2v6a2,2,0,0,0,2,2h8v14h2v-14h7.17a2,2,0,0,0,.76-.15,1.83,1.83,0,0,0,.65-.44l4.42-4.41Zm-1.41,7.42H537.27v-6h17.17l3,3Z" transform="translate(0.17 8.48)"/><path class="cls-5" d="M525.78,1169.13l0-5.71a.72.72,0,0,0-.72-.71l-7.15.06a.71.71,0,0,0-.5.21.7.7,0,0,0-.2.51l.05,5.71a4.28,4.28,0,0,0,3.61,4.19l.06,7.93-2.85,0v1.43l7.14-.06v-1.43l-2.86,0-.07-7.92a4.28,4.28,0,0,0,3.54-4.25Zm-7.14.06,0-5,5.72,0,0,5a2.85,2.85,0,0,1-.82,2,2.87,2.87,0,0,1-4,0A2.86,2.86,0,0,1,518.64,1169.19Z" transform="translate(0.17 8.48)"/><path class="cls-5" d="M512.86,1162.81l.06,6.45a2.77,2.77,0,0,1-.81,2,2.83,2.83,0,0,1-2,.85,2.85,2.85,0,0,1-2.91-2.8l-.06-6.45-1.43,0,.06,6.44a4.28,4.28,0,0,0,3.61,4.16l.08,9.36h1.43l-.08-9.36a4.25,4.25,0,0,0,3.53-4.23l-.06-6.44Z" transform="translate(0.17 8.48)"/><path class="cls-5" d="M510.72,1162.83l-1.43,0,.07,7.12h1.42Z" transform="translate(0.17 8.48)"/><path class="cls-5" d="M84.87,249.13v-5.71a.74.74,0,0,0-.2-.51.75.75,0,0,0-.51-.21H77a.72.72,0,0,0-.72.72v5.71a4.31,4.31,0,0,0,3.57,4.22v7.92H77v1.43h7.14v-1.43H81.3v-7.92a4.28,4.28,0,0,0,3.57-4.22Zm-7.14,0v-5h5.72v5A2.87,2.87,0,0,1,80.59,252a2.87,2.87,0,0,1-2.86-2.86Z" transform="translate(0.17 8.48)"/><path class="cls-5" d="M72,242.7v6.45A2.83,2.83,0,0,1,69.19,252a2.84,2.84,0,0,1-2-.81,2.88,2.88,0,0,1-.86-2V242.7H64.87v6.45a4.27,4.27,0,0,0,1,2.74,4.2,4.2,0,0,0,2.55,1.44v9.37h1.42v-9.36a4.22,4.22,0,0,0,2.56-1.44,4.34,4.34,0,0,0,1-2.75V242.7Z" transform="translate(0.17 8.48)"/><path class="cls-5" d="M69.87,242.7H68.45v7.13h1.42Z" transform="translate(0.17 8.48)"/><path class="cls-5" d="M312.44,425.54l-2.34-.06a1.18,1.18,0,0,1-1.14-1.2l.12-4.1a1.18,1.18,0,0,1-1.14-1.2l.1-3.51a1.76,1.76,0,0,1,1.8-1.71l3.51.1a1.74,1.74,0,0,1,1.23.55,1.77,1.77,0,0,1,.48,1.25l-.1,3.51a1.18,1.18,0,0,1-1.2,1.14l-.12,4.1a1.17,1.17,0,0,1-.36.81A1.15,1.15,0,0,1,312.44,425.54Zm-2.63-10.61a.45.45,0,0,0-.23,0,.51.51,0,0,0-.2.12.5.5,0,0,0-.13.19.45.45,0,0,0,0,.23l-.1,3.51,1.17,0-.15,5.27,2.34.06.15-5.26,1.17,0,.1-3.51a.58.58,0,0,0,0-.23.82.82,0,0,0-.12-.2.5.5,0,0,0-.19-.13.59.59,0,0,0-.23,0Z" transform="translate(0.17 8.48)"/><path class="cls-5" d="M311.61,413.23a2.41,2.41,0,0,1-1.29-.44,2.38,2.38,0,0,1-.83-1.07,2.33,2.33,0,0,1-.09-1.36,2.3,2.3,0,0,1,.67-1.18,2.35,2.35,0,0,1,1.22-.6,2.29,2.29,0,0,1,1.34.17A2.34,2.34,0,0,1,314,411a2.37,2.37,0,0,1-.73,1.64A2.42,2.42,0,0,1,311.61,413.23Zm.1-3.52a1.22,1.22,0,0,0-.65.18,1.19,1.19,0,0,0-.45.52,1.28,1.28,0,0,0-.09.67,1.19,1.19,0,0,0,.31.61,1.16,1.16,0,0,0,1.27.29,1.2,1.2,0,0,0,.75-1.06,1.18,1.18,0,0,0-1.14-1.21Z" transform="translate(0.17 8.48)"/><path class="cls-5" d="M380.21,495.34l-2.34-.07a1.15,1.15,0,0,1-.82-.36,1.19,1.19,0,0,1-.32-.84l.07-2.38-2.17-.07a.47.47,0,0,1-.44-.6,72.38,72.38,0,0,1,2.16-7,1.73,1.73,0,0,1,1.26-.48l3.51.1a1.77,1.77,0,0,1,1.23.54,70.62,70.62,0,0,1,1.58,7.12.46.46,0,0,1-.47.55l-2-.05-.07,2.38a1.18,1.18,0,0,1-1.2,1.14Zm-2.63-10.61a.58.58,0,0,0-.23,0,.56.56,0,0,0-.2.12.53.53,0,0,0-.13.2.45.45,0,0,0,0,.23l-1.43,5.36,2.44.07-.09,3.37,2.34.07.09-3.37,2.56.07-1.23-5.44a.85.85,0,0,0,0-.23.56.56,0,0,0-.12-.2.59.59,0,0,0-.19-.13.47.47,0,0,0-.23,0Z" transform="translate(0.17 8.48)"/><path class="cls-5" d="M379.38,483a2.34,2.34,0,0,1-2.12-1.5,2.35,2.35,0,0,1-.1-1.36,2.39,2.39,0,0,1,.68-1.18,2.33,2.33,0,0,1,1.21-.61,2.4,2.4,0,0,1,1.35.17,2.37,2.37,0,0,1,1.39,2.21,2.34,2.34,0,0,1-2.41,2.27Zm.1-3.51a1.2,1.2,0,0,0-.66.18,1.15,1.15,0,0,0-.44.51,1.14,1.14,0,0,0-.09.68,1.17,1.17,0,0,0,.9.94,1.19,1.19,0,0,0,1.21-.46,1.16,1.16,0,0,0-.1-1.48A1.18,1.18,0,0,0,379.48,479.51Z" transform="translate(0.17 8.48)"/><path class="cls-5" d="M552.89,773.51l-8.61-4.6,0-1.42a3.53,3.53,0,0,0,1.73-1,3.67,3.67,0,0,0,.75-3.81,3.65,3.65,0,0,0-1.21-1.61,3.66,3.66,0,0,0-5.34,1,3.59,3.59,0,0,0-.53,1.94l1.83,0a1.85,1.85,0,0,1,.63-1.25,1.78,1.78,0,0,1,.63-.35,1.72,1.72,0,0,1,.71-.09,1.89,1.89,0,0,1,.69.2,1.59,1.59,0,0,1,.56.44,1.83,1.83,0,0,1,.36.62,1.9,1.9,0,0,1,.08.71,1.91,1.91,0,0,1-1.92,1.54h0a.82.82,0,0,0-.57.24.79.79,0,0,0-.23.58l0,2.31-8.54,4.75a2.9,2.9,0,0,0-1.25,1.36,2.58,2.58,0,0,0,1.14,3.33,2.46,2.46,0,0,0,1.24.31l16.82-.14a2.67,2.67,0,0,0,1.23-.34,2.5,2.5,0,0,0,.92-.88,2.48,2.48,0,0,0,.39-1.21,2.62,2.62,0,0,0-.23-1.26,2.87,2.87,0,0,0-1.28-1.34Zm-1,3.2-16.82.14a.69.69,0,0,1-.52-.21.78.78,0,0,1-.23-.52.85.85,0,0,1,.13-.47.92.92,0,0,1,.34-.34l8.64-4.81,8.71,4.66a.8.8,0,0,1,.35.33,1,1,0,0,1,.14.47.74.74,0,0,1-.22.52.76.76,0,0,1-.52.23Z" transform="translate(0.17 8.48)"/><path class="cls-5" d="M401.75,382l-1.18.55-1-2.57-3.31-.09a.75.75,0,0,1-.54-.24.73.73,0,0,1-.2-.54l.06-2.3a.77.77,0,0,1,.24-.53.75.75,0,0,1,.55-.21.77.77,0,0,1,.74.78l0,1.53,2.67.08,0-.77-1.92-.05,0-.77a1.49,1.49,0,0,0-.41-1.09,1.53,1.53,0,0,0-2.17-.06,1.59,1.59,0,0,0-.48,1.07v.38a3.46,3.46,0,0,0-3.15,1.86,3.49,3.49,0,0,0-.38,1.87,3.45,3.45,0,0,0,4.11,3.09,3.52,3.52,0,0,0,1.69-.87,3.47,3.47,0,0,0,1-1.65l-.79,0a2.69,2.69,0,0,1-3.6,1.63,2.69,2.69,0,0,1-1.13-.93,2.62,2.62,0,0,1-.49-1.38,2.7,2.7,0,0,1,.32-1.42,2.64,2.64,0,0,1,1-1.05,2.61,2.61,0,0,1,1.41-.36l0,1.14a1.54,1.54,0,0,0,1.49,1.58l2.8.08,1.13,2.85,1.92-.9Z" transform="translate(0.17 8.48)"/><path class="cls-5" d="M396.57,374.89a1.31,1.31,0,0,1-.74-.24,1.32,1.32,0,0,1-.47-.62,1.26,1.26,0,0,1-.06-.77,1.34,1.34,0,0,1,.39-.68,1.29,1.29,0,0,1,.69-.34,1.35,1.35,0,0,1,.77.09,1.34,1.34,0,0,1,.59.51,1.44,1.44,0,0,1,.21.75,1.33,1.33,0,0,1-.42.94A1.37,1.37,0,0,1,396.57,374.89Zm.05-1.91a.62.62,0,0,0-.32.09.67.67,0,0,0-.22.25.63.63,0,0,0,0,.33.57.57,0,0,0,.15.3.66.66,0,0,0,.29.17.61.61,0,0,0,.33,0,.52.52,0,0,0,.26-.2.52.52,0,0,0,.11-.32.58.58,0,0,0-.56-.59Z" transform="translate(0.17 8.48)"/><path class="cls-5" d="M221,343.89l-6.1-.17,0-1.11,5.55.16.41-14.56-7.25-.2-.08,2.94-1.11,0,.1-3.49a.55.55,0,0,1,.57-.54l8.35.23a.56.56,0,0,1,.54.57l-.44,15.66A.55.55,0,0,1,221,343.89Zm-7.79-.41-1.11,0,.11-3.79-.48-.5L210,340.81a.59.59,0,0,1-.4.15l-3.5-.1,0-1.11,3.27.1,1.58-1.5-.06-.07a1.9,1.9,0,0,1,.09-3l1.1-1-1,0-1.71,1.61-.76-.8,1.88-1.78a.6.6,0,0,1,.4-.15l3.13.09a1.67,1.67,0,0,1,1.16.5l1.11,1.13,2.75.08,0,1.11-3-.09a.5.5,0,0,1-.38-.17l-1.26-1.29a.56.56,0,0,0-.4-.16,1.51,1.51,0,0,0-.67.34l-1.54,1.46a1.13,1.13,0,0,0-.43.7,1.15,1.15,0,0,0,.39.73l1.46,1.55a.54.54,0,0,1,.15.39Zm3.09-10.38a1.86,1.86,0,1,1,1.91-1.8A1.85,1.85,0,0,1,216.3,333.1Zm.07-2.6a.74.74,0,0,0-.77.73.76.76,0,0,0,.73.77.76.76,0,0,0,.78-.73A.75.75,0,0,0,216.37,330.5Z" transform="translate(0.17 8.48)"/><path class="cls-5" d="M262.48,387.08l-6.11-.18,0-1.1L262,386l.4-14.56-7.24-.2-.09,2.94-1.1,0,.1-3.5a.54.54,0,0,1,.56-.53l8.36.23a.55.55,0,0,1,.53.57l-.43,15.66A.57.57,0,0,1,262.48,387.08Zm-7.8-.41-1.1,0,.1-3.79-.47-.51L251.46,384a.5.5,0,0,1-.39.15l-3.5-.09,0-1.11,3.27.09,1.58-1.49-.06-.07a1.89,1.89,0,0,1,.08-3l1.11-1.05-1.05,0L250.82,379l-.76-.81,1.87-1.77a.62.62,0,0,1,.4-.15l3.13.09a1.67,1.67,0,0,1,1.16.49l1.11,1.14,2.75.08,0,1.1-3-.08a.58.58,0,0,1-.39-.17l-1.26-1.29a.59.59,0,0,0-.4-.17,1.73,1.73,0,0,0-.67.35l-1.53,1.45a1.13,1.13,0,0,0-.43.71,1.08,1.08,0,0,0,.39.73l1.46,1.55a.54.54,0,0,1,.14.39Zm3.1-10.38a1.86,1.86,0,1,1,1.91-1.8A1.86,1.86,0,0,1,257.78,376.29Zm.07-2.61a.76.76,0,1,0,.73.78A.76.76,0,0,0,257.85,373.68Z" transform="translate(0.17 8.48)"/><path class="cls-5" d="M429.17,549.23l-6.11-.17,0-1.1,5.56.15.41-14.56-7.25-.2-.08,2.95-1.11,0,.1-3.5a.55.55,0,0,1,.57-.54l8.35.24a.55.55,0,0,1,.54.56l-.44,15.66A.55.55,0,0,1,429.17,549.23Zm-7.79-.41-1.11,0,.11-3.79-.48-.5-1.75,1.65a.54.54,0,0,1-.39.15l-3.5-.1,0-1.1,3.27.09,1.58-1.5-.06-.06a1.92,1.92,0,0,1,.08-3l1.11-1-1,0-1.71,1.61-.76-.8,1.88-1.77a.5.5,0,0,1,.39-.15l3.14.09a1.7,1.7,0,0,1,1.16.49l1.1,1.14,2.75.07,0,1.11-3-.09a.53.53,0,0,1-.38-.16l-1.27-1.3a.53.53,0,0,0-.39-.16,1.5,1.5,0,0,0-.67.35l-1.54,1.45a1.16,1.16,0,0,0-.43.7,1.15,1.15,0,0,0,.39.73l1.46,1.55a.57.57,0,0,1,.15.4Zm3.09-10.37a1.86,1.86,0,1,1,1.91-1.81A1.87,1.87,0,0,1,424.47,538.45Zm.07-2.61a.75.75,0,1,0,.73.77A.75.75,0,0,0,424.54,535.84Z" transform="translate(0.17 8.48)"/></g></svg>
