<svg xmlns="http://www.w3.org/2000/svg" viewBox="0 0 1287.5 627.5"><defs><style>.cls-1{fill:#efefef;}.cls-1,.cls-5{stroke:#efefef;}.cls-1,.cls-10,.cls-11,.cls-12,.cls-13,.cls-2,.cls-26,.cls-5,.cls-54,.cls-56,.cls-57,.cls-6,.cls-9{stroke-miterlimit:10;stroke-width:2px;}.cls-10,.cls-11,.cls-12,.cls-2,.cls-5,.cls-56,.cls-57,.cls-9{fill:none;}.cls-13,.cls-2,.cls-26,.cls-54,.cls-56,.cls-57,.cls-6,.cls-9{stroke:#2bb5b5;}.cls-3,.cls-6{fill:#dceff3;}.cls-14,.cls-26,.cls-38,.cls-4,.cls-58{fill:#2bb5b5;}.cls-7{opacity:0.15;}.cls-8{fill:#d8d8d8;}.cls-9{stroke-dasharray:6.02 6.02;}.cls-10,.cls-11,.cls-12{stroke:#f08089;}.cls-11{stroke-dasharray:5.4 5.4;}.cls-12{stroke-dasharray:6.22 6.22;}.cls-13{fill:#393939;}.cls-14,.cls-27,.cls-30{font-size:12px;}.cls-14,.cls-21,.cls-27,.cls-30,.cls-35,.cls-45,.cls-49,.cls-53,.cls-58{font-family:IBMPlexSans-SemiBold, IBM Plex Sans;font-weight:600;}.cls-15{letter-spacing:-0.01em;}.cls-16{letter-spacing:-0.01em;}.cls-17{letter-spacing:-0.01em;}.cls-18{letter-spacing:0em;}.cls-19{letter-spacing:0em;}.cls-20{letter-spacing:0em;}.cls-21,.cls-53{font-size:15px;}.cls-21,.cls-27,.cls-30,.cls-35,.cls-45,.cls-49,.cls-53,.cls-54{fill:#fff;}.cls-21{letter-spacing:0.03em;}.cls-22{letter-spacing:0.02em;}.cls-23{letter-spacing:0.03em;}.cls-24{letter-spacing:0.02em;}.cls-25,.cls-53{letter-spacing:0.03em;}.cls-27,.cls-29{letter-spacing:0.03em;}.cls-28{letter-spacing:-0.04em;}.cls-31{letter-spacing:-0.01em;}.cls-32{letter-spacing:-0.01em;}.cls-33{letter-spacing:-0.01em;}.cls-34{letter-spacing:-0.01em;}.cls-35,.cls-38,.cls-40,.cls-45,.cls-49,.cls-58{font-size:7px;}.cls-35,.cls-46{letter-spacing:0.03em;}.cls-36{letter-spacing:0.02em;}.cls-37{letter-spacing:0.02em;}.cls-38,.cls-40{font-family:IBMPlexSans-Bold, IBM Plex Sans;font-weight:700;}.cls-39{letter-spacing:-0.02em;}.cls-40{fill:#f08089;}.cls-41{letter-spacing:0.01em;}.cls-42{letter-spacing:0em;}.cls-43{letter-spacing:0em;}.cls-44{letter-spacing:0em;}.cls-45{letter-spacing:0.01em;}.cls-47{letter-spacing:0em;}.cls-48{letter-spacing:0.02em;}.cls-49{letter-spacing:0em;}.cls-50{letter-spacing:0.03em;}.cls-51{letter-spacing:0.01em;}.cls-52{letter-spacing:0.02em;}.cls-55{fill:#2eb6b5;}.cls-56{stroke-dasharray:5.84 5.84;}.cls-57{stroke-dasharray:5.73 5.73;}.cls-59{letter-spacing:-0.03em;}.cls-60{letter-spacing:0em;}</style></defs><g id="Warstwa_2" data-name="Warstwa 2"><path class="cls-1" d="M627.57,231.42,525.26,124l4.82-4.55L534.7,124l15-13.62,7.54,8.28s24.36-9.71,54.8,18c15.78,14.38,55.74,53.8,55.74,53.8Z"/><polygon class="cls-1" points="583.66 214.99 583.66 215 558.86 237.79 515.25 191.32 539.06 167.75 510.64 137.64 461.12 183.79 563.04 292.22 612.06 245.08 583.66 214.99"/><polyline class="cls-2" points="514.55 134.01 461.12 183.79 563.04 292.22 615.73 241.55"/><polygon class="cls-1" points="540.41 313.27 492.25 358.56 389.59 251.01 438.58 205.25 540.41 313.27"/><polygon class="cls-1" points="371.96 275.2 329.94 330.83 349.65 351.85 374.22 328.92 427.21 385.43 403.02 408.75 407.46 413.49 465.8 375.5 371.96 275.2"/><polyline class="cls-2" points="402.43 416.77 465.8 375.5 371.96 275.2 326.51 335.37"/><polygon class="cls-1" points="372.9 407.27 325.94 450.85 304.99 428.26 350.94 383.53 317.81 347.71 271.34 413.49 320.29 466.85 389.59 425.31 372.9 407.27"/><g id="reception"><ellipse class="cls-3" cx="957.47" cy="76.77" rx="58.53" ry="76.04" transform="translate(65.27 432.61) rotate(-26.33)"/></g><g id="reception-2" data-name="reception"><path class="cls-2" d="M880.87,67.68C877,38.76,889.63,10.78,911.55-.06"/><polygon class="cls-4" points="885.83 62.45 885.14 84.89 874.51 65.12 885.83 62.45"/></g><circle class="cls-4" cx="238.94" cy="451.03" r="21.03"/><line class="cls-1" x1="565.39" y1="195.64" x2="583.66" y2="214.99"/><line class="cls-1" x1="539.77" y1="168.39" x2="558.72" y2="188.47"/><line class="cls-5" x1="349.93" y1="352.36" x2="364.04" y2="367.88"/><line class="cls-5" x1="371.74" y1="375.5" x2="402.43" y2="408"/><line class="cls-1" x1="351.49" y1="384.16" x2="361.91" y2="395.42"/><line class="cls-1" x1="368.14" y1="402.12" x2="378.56" y2="413.38"/><line class="cls-1" x1="521.14" y1="127.87" x2="525.26" y2="124.04"/><line class="cls-1" x1="623.73" y1="234.99" x2="627.33" y2="231.63"/><polyline class="cls-2" points="451.32 193.14 461.12 183.79 563.04 292.22 551.98 302.65"/><path class="cls-2" d="M521.14,127.87l8.94-8.38L534.7,124l15-13.62,7.54,8.28s24.36-9.71,54.8,18c15.78,14.38,55.74,53.8,55.74,53.8L623.73,235"/><polyline class="cls-2" points="321.08 343.08 271.34 413.49 320.29 466.85 394.23 422.52"/><polyline class="cls-2" points="545.09 309.16 540.56 313.43 438.58 205.28 440.15 203.78"/><polyline class="cls-2" points="380.87 241.28 371.96 231.33 392.6 212.24 410.59 231.33 389.59 251.01 393.77 255.39"/><polyline class="cls-2" points="452.55 173.66 443.94 163.5 392.6 212.24 410.59 231.33 442.98 201.15"/><polyline class="cls-2" points="451.32 193.14 461.12 183.79 461.12 183.79"/><polyline class="cls-2" points="383.35 259.01 389.59 251.01 492.25 358.56 483.54 364.13"/></g><g id="Warstwa_3" data-name="Warstwa 3"><path class="cls-6" d="M867,161.52l44.51-13.73a106.61,106.61,0,0,0,9.82,10.2c4,3.35,13.1,8.07,13.1,8.07l7.67,23.36L867,230.19,847.74,167l4.59-1.34"/><polyline class="cls-6" points="842.75 168.56 847.74 167.03 867.04 230.19 790.7 272.46 765 192.4 769.51 191.01"/><polyline class="cls-6" points="563.04 335.01 541.42 353.68 596.58 411.86 778.43 307.14 769.73 286.06 701.96 215 633.8 273.88"/><line class="cls-6" x1="599.33" y1="303.68" x2="624.54" y2="281.9"/><line class="cls-2" x1="778.43" y1="188.28" x2="833.29" y2="171.46"/><line class="cls-2" x1="573.64" y1="325.57" x2="589.74" y2="311.66"/><polyline class="cls-6" points="528.54 366.09 541.42 353.68 596.58 411.86 555.67 432.97 509.28 384.64 521.35 373.02"/><polyline class="cls-6" points="503.49 388.46 509.28 384.64 555.67 432.97 515.57 456.96 471.25 409.67 495.06 394.01"/><polyline class="cls-6" points="459.71 418.04 471.25 409.67 515.57 456.96 481.05 477.12 441 431.6 451.47 424.02"/><g id="Background" class="cls-7"><path class="cls-8" d="M.5,627V.44L885.55.5C881.54,5,863.48,26.4,863.12,51c-.32,22.25,5.18,36.4,6.39,39.24l-57.43,17.59L792.43,42.38,743.92,57l20.51,65.4-55,16.84L550.83,74.64l-113.34,64L400,97.7,370.27,124H29.89V416.09h60.6l-.62,55.18h67.76l37.14,70.31,53.07,61.91L451.39,492.71l-34.47-42.47,24-18,40,45.48L779.06,307.35l-8.91-21.57L702.67,215l4.72-4.43L764.68,193l25.73,80.17,152.33-83.53L935.31,167a95.78,95.78,0,0,0,37.8,8.21,78,78,0,0,0,14-1.24c26.36-4.86,45.92-25.91,48.09-28.33l103.69,23.41-.59,67.83,103.35.61,3.6-123.77L1112,111.12l-60.86-15.49A138.94,138.94,0,0,0,1042.56,47c-8.5-23-29.42-42.31-34.29-46.6h277.6L1287,627Z"/><path class="cls-8" d="M1285.38.94l1.12,625.56H1V.94L884.44,1C879.3,6.91,863,27.51,862.62,51c-.31,21.49,4.63,35.15,6.21,38.94l-56.42,17.27L793.05,42.71l-.29-1-1,.29L744.26,56.38l-1,.29.3,1,20.2,64.43-54.37,16.65L551.24,74.27l-.44-.18-.43.24L437.59,138,400.66,97.72,400,97l-.74.65L370.08,123.5H29.39V416.6H90l-.6,54.16v1h68l37,70,0,.1.08.08,52.77,61.56.53.61.71-.38L451.1,493.43l1.06-.57-.76-.94-33.77-41.59L440.86,433l39.44,44.82.54.61.71-.4L778.92,308l.77-.43-.34-.81-8.7-21.09-.07-.17-.13-.13L703.38,215l4.27-4,56.7-17.38,25.4,79.12.37,1.16,1.06-.59,151.44-83,.72-.4-.25-.79-7-21.18a96.3,96.3,0,0,0,37,7.8,78.12,78.12,0,0,0,14-1.25c25.85-4.76,45.18-25,48.18-28.27l103,23.25-.59,66.93v1h1l102.36.61h1l0-1,3.56-122.78,0-1-1,0-132.66-2.61-60.42-15.37A140,140,0,0,0,1043,46.87c-8-21.78-27.18-40.28-33.44-45.93h275.8m1-1H1006.92s25.5,21.13,35.17,47.27A136.27,136.27,0,0,1,1050.61,96l61.3,15.6,132.78,2.61L1241.13,237l-102.37-.61.6-67.73L1035,145.11s-20,23.23-48,28.38a76.27,76.27,0,0,1-13.87,1.24,93.28,93.28,0,0,1-38.64-8.67l7.67,23.36-151.44,83L765,192.39l-57.87,17.74L702,215l67.77,71.06,8.7,21.08-297.38,170L441,431.6l-24.8,18.55,34.42,42.4L248,602.86,195.19,541.3l-37.26-70.53H90.38L91,415.6H30.39V124.5H370.46l29.47-26.1,37.46,40.9L550.87,75.2l158.51,64.57,55.67-17-20.5-65.4L792.09,43l19.65,65.43L870.2,90.54s-7-14.5-6.58-39.55C864,23.35,886.69,0,886.69,0L0-.06V627.5H1287.5L1286.37-.06Z"/></g><path class="cls-6" d="M131.68,415.6h5.16l-.15-27.34H256l75.72-113.4L370.46,124.5H30.39V415.6h75.85"/><rect class="cls-4" x="60.52" y="102.09" width="276.8" height="23.2"/><polyline class="cls-2" points="774.89 119.72 765.05 122.73 744.55 57.33 792.09 43 811.74 108.43 800.52 111.87"/><polyline class="cls-2" points="474.67 369.82 465.8 375.5 371.96 275.2 378.1 266.26"/><line class="cls-2" x1="193.2" y1="123.02" x2="193.19" y2="126.02"/><line class="cls-9" x1="193.17" y1="132.03" x2="192.18" y2="381.76"/><line class="cls-2" x1="192.17" y1="384.77" x2="192.16" y2="387.77"/><line class="cls-10" x1="451.78" y1="131.92" x2="453.7" y2="134.22"/><line class="cls-11" x1="457.16" y1="138.37" x2="476.19" y2="161.21"/><line class="cls-10" x1="477.92" y1="163.28" x2="479.84" y2="165.59"/><line class="cls-10" x1="637.76" y1="221.72" x2="639.96" y2="223.75"/><line class="cls-12" x1="644.54" y1="227.97" x2="660.55" y2="242.75"/><line class="cls-10" x1="662.83" y1="244.86" x2="665.04" y2="246.89"/><line class="cls-13" x1="811.74" y1="108.43" x2="870.2" y2="90.54"/><polyline class="cls-2" points="370.46 124.5 399.93 98.4 437.39 139.3 550.87 75.2 709.38 139.77 765.05 122.73"/><polyline class="cls-2" points="701.96 215 707.13 210.13 764.34 192.6"/><polyline class="cls-2" points="441 431.6 416.2 450.15 447.7 492.99 247.96 602.86 195.19 541.3 157.93 470.77 90.38 470.77 90.99 415.6"/><rect class="cls-4" x="362.78" y="125.62" width="15.59" height="64.53" transform="translate(50.57 -86.76) rotate(14.32)"/><rect class="cls-4" x="625.37" y="159.03" width="23.41" height="36.7" transform="translate(64.05 507.5) rotate(-45.5)"/><rect class="cls-4" x="643.74" y="180.33" width="10.94" height="43.84" transform="translate(327.87 -397.02) rotate(44.5)"/><polygon class="cls-4" points="701.96 215 769.73 286.06 778.43 307.14 742.84 327.63 665.04 246.89 701.96 215"/><text class="cls-14" transform="translate(502.22 416.77) rotate(46.6)">VIP</text><text class="cls-14" transform="translate(536.59 387.33) rotate(46.6)">1 on 1</text><text class="cls-14" transform="matrix(0.95, -0.3, 0.3, 0.95, 876.38, 194.44)"><tspan class="cls-15">P</tspan><tspan class="cls-16" x="7.57" y="0">r</tspan><tspan x="12.23" y="0">e</tspan><tspan class="cls-17" x="18.92" y="0">s</tspan><tspan x="24.83" y="0">s</tspan></text><text class="cls-14" transform="matrix(0.95, -0.3, 0.3, 0.95, 779.46, 218.04)">Spa<tspan class="cls-18" x="21.24" y="0">c</tspan><tspan class="cls-19" x="27.34" y="0">e</tspan><tspan class="cls-20" x="0" y="14.4">f</tspan><tspan x="4.15" y="14.4">or</tspan><tspan x="0" y="28.8">Academics</tspan></text><text class="cls-14" transform="translate(464 432.97) rotate(46.6)">1 on 1</text><text class="cls-21" transform="translate(704.14 256.79) rotate(46.6)">Q<tspan class="cls-22" x="11.07" y="0">o</tspan><tspan class="cls-23" x="19.81" y="0">f</tspan><tspan class="cls-24" x="25.5" y="0">f</tspan><tspan class="cls-25" x="31.08" y="0">ee</tspan></text><polygon class="cls-26" points="449.29 492.55 421.98 445.67 346.44 497.69 367.98 535.7 449.29 492.55"/><polygon class="cls-4" points="559.87 337.74 620.1 398.61 596.58 411.86 541.42 353.68 559.87 337.74"/><text class="cls-27" transform="translate(393.66 481.73) rotate(-29.43)">Client<tspan x="-34.96" y="14.4">Engineering</tspan><tspan class="cls-28"><tspan x="3.17" y="28.8">T</tspan><tspan class="cls-29" x="9.66" y="28.8">eam</tspan></tspan></text><text class="cls-30" transform="translate(168.68 118.14)">Main <tspan class="cls-20" x="29.7" y="0">S</tspan><tspan x="36.98" y="0">ta</tspan><tspan class="cls-31" x="48.18" y="0">g</tspan><tspan x="54.65" y="0">e</tspan></text><text class="cls-14" transform="translate(925.26 89.72)"><tspan class="cls-32">R</tspan><tspan class="cls-19" x="7.79" y="0">egi</tspan><tspan class="cls-33" x="24.34" y="0">s</tspan><tspan x="30.23" y="0">t</tspan><tspan class="cls-34" x="34.72" y="0">r</tspan><tspan class="cls-20" x="39.3" y="0">a</tspan><tspan class="cls-19" x="45.96" y="0">tion</tspan></text><text class="cls-35" transform="translate(222.12 448.84)">Ph<tspan class="cls-36" x="8.97" y="0">ot</tspan><tspan x="15.83" y="0">o</tspan><tspan x="0" y="8.4">Bo</tspan><tspan class="cls-37" x="8.95" y="8.4">o</tspan><tspan x="13.04" y="8.4">th 360</tspan></text><text class="cls-38" transform="translate(435.22 323.42)"><tspan class="cls-39">W</tspan><tspan x="6.65" y="0">C</tspan></text><text class="cls-38" transform="translate(385.53 239.53) rotate(1.6)"><tspan class="cls-39">W</tspan><tspan x="6.65" y="0">C</tspan></text><text class="cls-38" transform="translate(507.18 256.79)"><tspan class="cls-39">W</tspan><tspan x="6.65" y="0">C</tspan></text><text class="cls-40" transform="matrix(0.8, -0.6, 0.6, 0.8, 469.24, 142.59)">No Ent<tspan class="cls-41" x="21.77" y="0">r</tspan><tspan class="cls-42" x="24.65" y="0">y</tspan><tspan x="0" y="8.4">af</tspan><tspan class="cls-43" x="6.51" y="8.4">t</tspan><tspan class="cls-42" x="9.16" y="8.4">er 16:00</tspan></text><text class="cls-40" transform="matrix(0.7, -0.71, 0.71, 0.7, 654.86, 228.01)">No Ent<tspan class="cls-41" x="21.77" y="0">r</tspan><tspan class="cls-42" x="24.65" y="0">y</tspan><tspan x="0" y="8.4">be</tspan><tspan class="cls-43" x="8.19" y="8.4">f</tspan><tspan class="cls-42" x="10.69" y="8.4">o</tspan><tspan class="cls-44" x="14.64" y="8.4">r</tspan><tspan class="cls-42" x="17.43" y="8.4">e 13:35</tspan></text><text class="cls-45" transform="matrix(0.25, -0.97, 0.97, 0.25, 366.47, 179.36)">R<tspan class="cls-46" x="4.72" y="0">ebus </tspan><tspan class="cls-47" x="23" y="0">W</tspan><tspan class="cls-46" x="29.66" y="0">a</tspan><tspan class="cls-48" x="33.75" y="0">l</tspan><tspan class="cls-46" x="35.94" y="0">l</tspan></text><text class="cls-49" transform="matrix(0.71, 0.7, -0.7, 0.71, 632.29, 168.43)">D<tspan class="cls-50" x="4.83" y="0">J</tspan><tspan class="cls-46"><tspan x="0" y="8.4">Bo</tspan><tspan class="cls-37" x="8.95" y="8.4">o</tspan><tspan x="13.04" y="8.4">th</tspan></tspan></text><text class="cls-35" transform="matrix(0.7, -0.71, 0.71, 0.7, 639.25, 216.04)">Concie<tspan class="cls-51" x="23.07" y="0">r</tspan><tspan class="cls-52" x="25.89" y="0">g</tspan><tspan x="29.84" y="0">e</tspan></text><text class="cls-53" transform="translate(565.39 369.57) rotate(46.6)">Z16</text><path class="cls-54" d="M1091.3,106.77a190.87,190.87,0,0,0-8.74-50,204.36,204.36,0,0,0-16-36.68l189-.43V247.62H1091.3l.48-89.69"/><line class="cls-6" x1="1050.61" y1="96.02" x2="1092.18" y2="106.35"/><path class="cls-2" d="M911.55,147.79s13,21.47,51.91,26.5c43.18,5.58,71.53-29.18,71.53-29.18l56.79,12.82"/><path class="cls-55" d="M965.55,51.13a1.8,1.8,0,0,0-.65-.43,2,2,0,0,0-.76-.16H957v-4h-2v4h-8a2.08,2.08,0,0,0-1.42.59,2,2,0,0,0-.58,1.41v6a2,2,0,0,0,2,2h8v14h2v-14h7.17a1.81,1.81,0,0,0,.76-.15,1.94,1.94,0,0,0,.65-.43L970,55.54Zm-1.41,7.41H947v-6h17.17l3,3Z"/><path class="cls-55" d="M1189.07,134.77v-8a1,1,0,0,0-1-1h-10a1,1,0,0,0-.7.29,1,1,0,0,0-.3.71v8a6,6,0,0,0,5,5.91v11.09h-4v2h10v-2h-4V140.68a6,6,0,0,0,5-5.91Zm-10,0v-7h8v7a4,4,0,0,1-8,0Z"/><path class="cls-55" d="M1171.07,125.77v9a3.93,3.93,0,0,1-1.16,2.8,4,4,0,0,1-5.63,0,4,4,0,0,1-1.21-2.81v-9h-2v9a6,6,0,0,0,5,5.86v13.12h2V140.66a6,6,0,0,0,5-5.87v-9Z"/><path class="cls-55" d="M1168.07,125.77h-2v10h2Z"/><path class="cls-55" d="M262.15,542.2v-7.42a.94.94,0,0,0-.27-.66.9.9,0,0,0-.66-.27h-9.28a.91.91,0,0,0-.66.27.94.94,0,0,0-.27.66v7.42a5.57,5.57,0,0,0,4.64,5.49V558h-3.71v1.86h9.28V558h-3.71v-10.3a5.57,5.57,0,0,0,4.64-5.49Zm-9.28,0v-6.5h7.43v6.5a3.75,3.75,0,0,1-1.09,2.63,3.71,3.71,0,0,1-6.34-2.63Z"/><path class="cls-55" d="M245.44,533.85v8.37a3.72,3.72,0,0,1-7.43,0v-8.37h-1.86v8.37a5.57,5.57,0,0,0,4.65,5.45v12.18h1.85V547.68a5.57,5.57,0,0,0,4.65-5.46v-8.37Z"/><path class="cls-55" d="M242.65,533.85H240.8v9.26h1.85Z"/><path class="cls-55" d="M430.4,323.42h-2.56a1.26,1.26,0,0,1-.9-.37,1.29,1.29,0,0,1-.37-.91v-4.47a1.29,1.29,0,0,1-.91-.37,1.26,1.26,0,0,1-.37-.9v-3.83a1.91,1.91,0,0,1,1.91-1.92H431a1.91,1.91,0,0,1,1.91,1.92v3.83a1.26,1.26,0,0,1-.37.9,1.29,1.29,0,0,1-.91.37v4.47a1.29,1.29,0,0,1-.37.91A1.26,1.26,0,0,1,430.4,323.42Zm-3.2-11.49a.54.54,0,0,0-.25,0,.64.64,0,0,0-.35.35.57.57,0,0,0,0,.26v3.83h1.27v5.74h2.56V316.4h1.27v-3.83a.57.57,0,0,0,0-.26.64.64,0,0,0-.35-.35.54.54,0,0,0-.25,0Z"/><path class="cls-55" d="M429.12,310a2.55,2.55,0,0,1-1.42-.43,2.52,2.52,0,0,1-.94-1.15,2.54,2.54,0,0,1,.55-2.78,2.59,2.59,0,0,1,1.31-.7,2.5,2.5,0,0,1,1.48.15,2.55,2.55,0,0,1-1,4.91Zm0-3.83a1.25,1.25,0,0,0-1.18.79,1.25,1.25,0,0,0-.07.74,1.3,1.3,0,0,0,.35.65,1.26,1.26,0,0,0,.65.35,1.33,1.33,0,0,0,.74-.07,1.31,1.31,0,0,0,.57-.47,1.27,1.27,0,0,0-.16-1.62A1.26,1.26,0,0,0,429.12,306.18Z"/><path class="cls-55" d="M502.22,256.74h-2.55a1.26,1.26,0,0,1-1.28-1.27v-2.61H496a.52.52,0,0,1-.51-.64c.48-1.9,1.86-7.39,2.15-7.69A1.92,1.92,0,0,1,499,244h3.83a1.9,1.9,0,0,1,1.35.56c.3.3,1.54,5.84,2,7.71a.51.51,0,0,1-.5.62H503.5v2.61a1.29,1.29,0,0,1-.38.9A1.26,1.26,0,0,1,502.22,256.74ZM499,245.25a.53.53,0,0,0-.25,0,.51.51,0,0,0-.35.35.53.53,0,0,0,0,.25l-1.39,5.9h2.67v3.68h2.55v-3.68H505l-1.51-5.9a.69.69,0,0,0,0-.25.64.64,0,0,0-.14-.22.57.57,0,0,0-.21-.13.55.55,0,0,0-.25,0Z"/><path class="cls-55" d="M500.94,243.33a2.57,2.57,0,0,1-1.42-.43,2.61,2.61,0,0,1-.94-1.14,2.58,2.58,0,0,1-.14-1.48,2.55,2.55,0,0,1,.7-1.31,2.56,2.56,0,0,1,3.93.39,2.55,2.55,0,0,1,.43,1.42,2.52,2.52,0,0,1-.75,1.8A2.56,2.56,0,0,1,500.94,243.33Zm0-3.83a1.29,1.29,0,0,0-.71.22,1.31,1.31,0,0,0-.47.57,1.33,1.33,0,0,0-.07.74,1.28,1.28,0,0,0,1,1,1.33,1.33,0,0,0,.74-.07,1.25,1.25,0,0,0,.57-.47,1.22,1.22,0,0,0,.22-.71,1.25,1.25,0,0,0-.37-.9A1.3,1.3,0,0,0,500.94,239.5Z"/><path class="cls-55" d="M790.58,85.27,780.25,82.6l-.38-1.5a4,4,0,0,0,1.57-1.55,4,4,0,0,0-.19-4.23,4.13,4.13,0,0,0-1.7-1.4,4,4,0,0,0-5.41,2.46,3.92,3.92,0,0,0-.06,2.2l1.93-.49a2.06,2.06,0,0,1,.36-1.5,1.93,1.93,0,0,1,.57-.53,2.09,2.09,0,0,1,.73-.28,2,2,0,0,1,.78,0,2,2,0,0,1,.72.33,1.93,1.93,0,0,1,.53.57,2.09,2.09,0,0,1,.28.73,2,2,0,0,1-.44,1.36,2.1,2.1,0,0,1-1.2.77h0a.86.86,0,0,0-.55.4.9.9,0,0,0-.1.68l.62,2.44-7.84,7.25a3.07,3.07,0,0,0-1,1.77,2.85,2.85,0,0,0,.85,2.57,2.84,2.84,0,0,0,2.61.68l17.83-4.49a2.82,2.82,0,0,0,2-1.84,2.74,2.74,0,0,0,.1-1.39,2.77,2.77,0,0,0-.57-1.27,3.07,3.07,0,0,0-1.7-1.1Zm-.29,3.66-17.83,4.49a.81.81,0,0,1-1-.59,1,1,0,0,1,.29-1l7.93-7.33,10.45,2.7a1,1,0,0,1,.46.27.88.88,0,0,1,.26.46.77.77,0,0,1-.09.61.79.79,0,0,1-.49.37Z"/><path class="cls-55" d="M396.75,230.38l-1.19.55-1-2.57-3.31-.09a.77.77,0,0,1-.54-.24.81.81,0,0,1-.21-.55l.07-2.29a.73.73,0,0,1,.24-.54.76.76,0,0,1,.54-.21.82.82,0,0,1,.54.24.81.81,0,0,1,.21.55l0,1.53,2.67.07,0-.76-1.91,0,0-.77a1.56,1.56,0,0,0-.41-1.09,1.52,1.52,0,0,0-1.07-.48,1.54,1.54,0,0,0-1.58,1.49v.38a3.42,3.42,0,0,0-3.15,1.86,3.45,3.45,0,0,0-.38,1.87,3.51,3.51,0,0,0,.68,1.78,3.42,3.42,0,0,0,1.53,1.15,3.51,3.51,0,0,0,1.9.16,3.45,3.45,0,0,0,1.69-.88,3.4,3.4,0,0,0,1-1.64l-.79,0a2.68,2.68,0,0,1-2.15,1.81,2.68,2.68,0,0,1-1.45-.19,2.54,2.54,0,0,1-1.13-.92,2.64,2.64,0,0,1-.17-2.81,2.66,2.66,0,0,1,2.43-1.41l0,1.15a1.54,1.54,0,0,0,1.49,1.57l2.8.08,1.13,2.85,1.92-.89Z"/><path class="cls-55" d="M391.57,223.3a1.37,1.37,0,0,1-1.22-.86,1.38,1.38,0,0,1-.05-.78,1.31,1.31,0,0,1,.39-.67,1.38,1.38,0,0,1,.69-.35,1.36,1.36,0,0,1,.77.1,1.39,1.39,0,0,1,.59.51,1.32,1.32,0,0,1,.2.75,1.32,1.32,0,0,1-1.37,1.3Zm.05-1.91a.62.62,0,0,0-.32.09.54.54,0,0,0-.22.25.62.62,0,0,0,0,.33.61.61,0,0,0,.15.3.56.56,0,0,0,.29.16.53.53,0,0,0,.33,0,.49.49,0,0,0,.26-.21.51.51,0,0,0,.11-.31.57.57,0,0,0-.16-.41A.55.55,0,0,0,391.62,221.39Z"/><polyline class="cls-2" points="44.26 143.38 44.26 140.38 47.26 140.38"/><line class="cls-56" x1="53.1" y1="140.38" x2="96.93" y2="140.38"/><polyline class="cls-2" points="99.85 140.38 102.85 140.38 102.85 143.38"/><line class="cls-57" x1="102.85" y1="149.11" x2="102.85" y2="157.71"/><polyline class="cls-2" points="102.85 160.58 102.85 163.58 99.85 163.58"/><line class="cls-56" x1="94.01" y1="163.58" x2="50.18" y2="163.58"/><polyline class="cls-2" points="47.26 163.58 44.26 163.58 44.26 160.58"/><line class="cls-57" x1="44.26" y1="154.85" x2="44.26" y2="146.25"/><text class="cls-14" transform="translate(52.72 155.48)"><tspan class="cls-20">S</tspan><tspan class="cls-19" x="7.28" y="0">ta</tspan><tspan class="cls-31" x="18.48" y="0">g</tspan><tspan x="24.95" y="0">e 1</tspan></text><text class="cls-58" transform="translate(54.5 173.95)"><tspan class="cls-59">F</tspan><tspan class="cls-60" x="3.85" y="0">r</tspan><tspan x="6.57" y="0">om 16:25</tspan></text><text class="cls-58" transform="translate(129.07 173.95)"><tspan class="cls-59">F</tspan><tspan class="cls-60" x="3.85" y="0">r</tspan><tspan x="6.57" y="0">om 16:25</tspan></text><text class="cls-58" transform="matrix(0.03, -1, 1, 0.03, 186.1, 358.56)"><tspan class="cls-59">F</tspan><tspan class="cls-60" x="3.85" y="0">r</tspan><tspan x="6.57" y="0">om 16:25</tspan></text><text class="cls-58" transform="translate(257.39 173.95)"><tspan class="cls-59">F</tspan><tspan class="cls-60" x="3.85" y="0">r</tspan><tspan x="6.57" y="0">om 16:25</tspan></text><polyline class="cls-2" points="120.14 143.38 120.14 140.38 123.14 140.38"/><line class="cls-56" x1="128.99" y1="140.38" x2="172.82" y2="140.38"/><polyline class="cls-2" points="175.74 140.38 178.74 140.38 178.74 143.38"/><line class="cls-57" x1="178.74" y1="149.11" x2="178.74" y2="157.71"/><polyline class="cls-2" points="178.74 160.58 178.74 163.58 175.74 163.58"/><line class="cls-56" x1="169.9" y1="163.58" x2="126.07" y2="163.58"/><polyline class="cls-2" points="123.14 163.58 120.14 163.58 120.14 160.58"/><line class="cls-57" x1="120.14" y1="154.85" x2="120.14" y2="146.25"/><text class="cls-14" transform="translate(128.6 155.48)"><tspan class="cls-20">S</tspan><tspan class="cls-19" x="7.28" y="0">ta</tspan><tspan class="cls-31" x="18.48" y="0">g</tspan><tspan x="24.95" y="0">e 2</tspan></text><polyline class="cls-2" points="245.41 143.38 245.41 140.38 248.41 140.38"/><line class="cls-56" x1="254.25" y1="140.38" x2="298.08" y2="140.38"/><polyline class="cls-2" points="301 140.38 304 140.38 304 143.38"/><line class="cls-57" x1="304" y1="149.11" x2="304" y2="157.71"/><polyline class="cls-2" points="304 160.58 304 163.58 301 163.58"/><line class="cls-56" x1="295.16" y1="163.58" x2="251.33" y2="163.58"/><polyline class="cls-2" points="248.41 163.58 245.41 163.58 245.41 160.58"/><line class="cls-57" x1="245.41" y1="154.85" x2="245.41" y2="146.25"/><text class="cls-14" transform="translate(253.87 155.48)"><tspan class="cls-20">S</tspan><tspan class="cls-19" x="7.28" y="0">ta</tspan><tspan class="cls-31" x="18.48" y="0">g</tspan><tspan x="24.95" y="0">e 3</tspan></text><path class="cls-4" d="M553.86,212.71l-6.1-.17,0-1.11,5.55.16.41-14.56-7.25-.2-.08,2.94-1.11,0,.1-3.5a.56.56,0,0,1,.57-.53l8.35.23a.55.55,0,0,1,.54.57l-.44,15.66A.56.56,0,0,1,553.86,212.71Zm-7.79-.41-1.11,0,.11-3.79-.48-.51-1.74,1.65a.5.5,0,0,1-.4.15l-3.49-.09,0-1.11,3.26.09,1.59-1.49-.07-.07a1.9,1.9,0,0,1,.09-3l1.1-1-1.05,0-1.71,1.62-.75-.8,1.87-1.78a.6.6,0,0,1,.4-.15l3.13.09a1.68,1.68,0,0,1,1.16.49l1.11,1.14,2.75.08,0,1.1-3-.08a.52.52,0,0,1-.38-.17l-1.26-1.29a.56.56,0,0,0-.4-.16,1.56,1.56,0,0,0-.67.34l-1.54,1.45a.85.85,0,0,0,0,1.44l1.46,1.55a.51.51,0,0,1,.15.39Zm3.09-10.38a1.86,1.86,0,1,1,1.91-1.8A1.86,1.86,0,0,1,549.16,201.92Zm.08-2.61a.76.76,0,1,0,.73.78A.76.76,0,0,0,549.24,199.31Z"/><path class="cls-4" d="M392.48,378.07l-6.11-.17,0-1.1L392,377l.41-14.55-7.25-.21-.09,2.95-1.1,0,.1-3.5a.56.56,0,0,1,.57-.54l8.35.24a.56.56,0,0,1,.54.57l-.44,15.66A.56.56,0,0,1,392.48,378.07Zm-7.8-.4-1.1,0,.11-3.79-.48-.51L381.46,375a.53.53,0,0,1-.39.15l-3.5-.1,0-1.1,3.27.09,1.58-1.49-.06-.07a1.92,1.92,0,0,1,.08-3l1.11-1-1.05,0L380.82,370l-.76-.81,1.88-1.77a.58.58,0,0,1,.39-.15l3.13.09a1.67,1.67,0,0,1,1.16.49l1.11,1.14,2.75.08,0,1.1-3-.08a.58.58,0,0,1-.38-.17l-1.27-1.3a.63.63,0,0,0-.4-.16,1.52,1.52,0,0,0-.66.35l-1.54,1.45a1.14,1.14,0,0,0-.43.7,1.08,1.08,0,0,0,.39.73l1.46,1.55a.64.64,0,0,1,.15.4Zm3.1-10.38a1.86,1.86,0,1,1,1.91-1.8A1.86,1.86,0,0,1,387.78,367.29Zm.07-2.61a.76.76,0,1,0,.73.77A.76.76,0,0,0,387.85,364.68Z"/><path class="cls-4" d="M344.27,424.09l-6.11-.17,0-1.1,5.55.15.41-14.55-7.25-.2-.08,2.94-1.1,0,.09-3.5a.56.56,0,0,1,.57-.53l8.36.23a.55.55,0,0,1,.53.57l-.44,15.66A.54.54,0,0,1,344.27,424.09Zm-7.8-.4-1.1,0,.1-3.79-.47-.51L333.25,421a.54.54,0,0,1-.4.15l-3.49-.09,0-1.11,3.27.09,1.58-1.49-.07-.07a1.9,1.9,0,0,1,.09-3l1.1-1.05-1,0L332.61,416l-.76-.81,1.87-1.77a.62.62,0,0,1,.4-.15l3.13.09a1.68,1.68,0,0,1,1.16.49l1.11,1.14,2.75.08,0,1.1-3-.08a.6.6,0,0,1-.38-.17l-1.26-1.3a.63.63,0,0,0-.4-.16,1.73,1.73,0,0,0-.67.35L335,416.29a.84.84,0,0,0,0,1.44l1.45,1.54a.54.54,0,0,1,.15.4Zm3.09-10.38a1.86,1.86,0,1,1,1.91-1.8A1.86,1.86,0,0,1,339.56,413.31Zm.08-2.61a.76.76,0,1,0,0,1.51.76.76,0,0,0,0-1.51Z"/></g></svg>